<?xml version="1.0" encoding="UTF-8" standalone="no"?>
<!-- Created with Inkscape (http://www.inkscape.org/) -->

<svg
   width="403.27802"
   height="35.285709"
   viewBox="0 0 403.27802 35.285709"
   version="1.1"
   id="svg1"
   xml:space="preserve"
   xmlns:xlink="http://www.w3.org/1999/xlink"
   xmlns="http://www.w3.org/2000/svg"
   xmlns:svg="http://www.w3.org/2000/svg"><defs
     id="defs1"><linearGradient
       id="swatch148"><stop
         style="stop-color:#ffffff;stop-opacity:1;"
         offset="0"
         id="stop148" /></linearGradient><linearGradient
       id="swatch147"><stop
         style="stop-color:#000000;stop-opacity:1;"
         offset="0"
         id="stop147" /></linearGradient><linearGradient
       xlink:href="#swatch148"
       id="linearGradient177"
       x1="-1455.621"
       y1="-78.785645"
       x2="-1074.6945"
       y2="-78.785645"
       gradientUnits="userSpaceOnUse" /><linearGradient
       xlink:href="#swatch147"
       id="linearGradient178"
       x1="-1455.621"
       y1="-78.785645"
       x2="-1074.6945"
       y2="-78.785645"
       gradientUnits="userSpaceOnUse" /><linearGradient
       xlink:href="#swatch147"
       id="linearGradient179"
       x1="-1466.9113"
       y1="-78.785645"
       x2="-1063.6332"
       y2="-78.785645"
       gradientUnits="userSpaceOnUse" /><linearGradient
       xlink:href="#swatch147"
       id="linearGradient180"
       x1="-1466.9113"
       y1="-78.785645"
       x2="-1063.6332"
       y2="-78.785645"
       gradientUnits="userSpaceOnUse" /></defs><g
     id="layer1-9"
     transform="translate(1466.9112,96.428505)"><path
       style="fill:url(#linearGradient180);fill-opacity:1;stroke:url(#linearGradient179);stroke-dashoffset:0.3"
       d="m -1466.4112,-80.349353 5.7915,-6.60232 h 18.9961 l 85.3668,-6.42857 1.9692,-2.54826 h 178.2625 l 1.5058,2.54826 85.9459,6.42857 h 18.6487 l 5.7915,6.60232 v 4.2278 l -5.7915,6.25483 h -18.6487 l -85.9459,5.67567 -1.5058,2.54826 h -178.2625 l -1.9692,-2.54826 -85.3668,-5.67567 h -18.9961 l -5.7915,-6.60232 z"
       id="path28" /><path
       style="fill:url(#linearGradient177);fill-opacity:1;stroke:url(#linearGradient178);stroke-dashoffset:0.3;stroke-opacity:1"
       d="m -1454.944,-78.553983 13.3204,-14.82626 h 353.0502 l 13.2047,14.82626 -13.2047,14.36293 h -353.0502 z"
       id="path24" /></g></svg>
