<?xml version="1.0" encoding="UTF-8" standalone="no"?>
<!-- Created with Inkscape (http://www.inkscape.org/) -->

<svg
   width="330"
   height="465"
   viewBox="0 0 330 465"
   version="1.1"
   id="svg1"
   xml:space="preserve"
   xmlns:xlink="http://www.w3.org/1999/xlink"
   xmlns="http://www.w3.org/2000/svg"
   xmlns:svg="http://www.w3.org/2000/svg"><defs
     id="defs1"><linearGradient
       id="linearGradient169"><stop
         style="stop-color:#000000;stop-opacity:1;"
         offset="0"
         id="stop169" /><stop
         style="stop-color:#000000;stop-opacity:0;"
         offset="0.80853277"
         id="stop170" /></linearGradient><linearGradient
       id="linearGradient161"><stop
         style="stop-color:#c8322f;stop-opacity:1;"
         offset="0.2"
         id="stop161" /><stop
         style="stop-color:#bccdce;stop-opacity:1;"
         offset="0.80000001"
         id="stop162" /></linearGradient><linearGradient
       xlink:href="#linearGradient161"
       id="linearGradient162"
       x1="106.22266"
       y1="215.79102"
       x2="223.82031"
       y2="215.79102"
       gradientUnits="userSpaceOnUse" /><filter
       style="color-interpolation-filters:sRGB"
       id="filter170-7"
       x="-0.018830226"
       y="-0.25930813"
       width="1.0376605"
       height="1.5186163"><feGaussianBlur
         stdDeviation="0.92266261"
         id="feGaussianBlur170-4" /></filter><linearGradient
       xlink:href="#linearGradient169"
       id="linearGradient171"
       gradientUnits="userSpaceOnUse"
       x1="165.36426"
       y1="203.52235"
       x2="165.84375"
       y2="223.79492"
       gradientTransform="translate(-0.00827,0.42728)" /></defs><g
     id="g149"
     style="display:inline;fill:none;stroke:#ffe36b;stroke-opacity:1"><path
       style="display:inline;fill:url(#linearGradient162);stroke:none;stroke-width:0.2;stroke-linecap:round;stroke-dasharray:none;stroke-dashoffset:0.3;stroke-opacity:1"
       d="m 106.22266,215.71484 5.98437,-4.63672 h 6.88281 l 4.63868,-3.29101 h 83.18554 l 4.48828,3.58984 5.68555,-0.44922 6.73242,4.78711 c -5.70006,1.04254 -11.33291,2.32468 -15.71093,8.08008 h -84.53126 c -4.87686,-6.82989 -10.63094,-6.96711 -17.35546,-8.08008 z"
       id="path146" /><path
       id="path118-8-7"
       style="display:inline;fill:url(#linearGradient171);fill-opacity:0.358277;stroke:none;stroke-width:0.2;stroke-linecap:round;stroke-dasharray:none;stroke-dashoffset:0.3;stroke-opacity:1;filter:url(#filter170-7)"
       d="m 120.23978,213.13626 c -0.61925,0.64745 -1.56532,0.26752 -2.35821,0.36914 -1.6664,1e-5 -3.33281,0 -4.99922,0 -0.60742,0.47071 -2.97027,2.42591 -3.57769,2.89661 l -3.09027,-0.25989 5.98437,-4.63672 h 6.88281 l 4.63868,-3.29101 h 83.18554 l 10.17383,3.14062 6.73242,4.78711 -3.0687,0.61188 -4.82826,-3.30087 c -1.71728,0.13592 -3.43458,0.27173 -5.15187,0.40774 -1.5211,-1.21434 -3.04026,-2.43111 -4.56054,-3.64648 h -81.84375 c -1.37305,0.97396 -2.7461,1.94792 -4.11914,2.92187 z" /><path
       style="display:inline;fill:#ffffff;fill-opacity:1;stroke:none;stroke-width:0.2;stroke-linecap:round;stroke-dasharray:none;stroke-dashoffset:0.3;stroke-opacity:1"
       d="m 0,228.01172 46.753906,0.15039 7.107422,-7.78125 50.358012,-0.41938 c 6.56447,0.60665 13.23484,0.82963 18.01504,7.89985 l 86.85156,0.15039 c 5.42283,-7.5359 12.61844,-7.79371 19.89844,-7.70508 l 47.27734,0.22266 6.6582,7.4082 L 330,227.93555 V 465 H 0 Z"
       id="path148" /><path
       id="path149"
       style="display:inline;fill:#ffe36b;fill-opacity:1;stroke:none;stroke-width:0.5;stroke-linecap:round;stroke-dashoffset:0.3;stroke-opacity:1"
       d="m 122.98828,203.41992 -4.56836,3.27149 -5.83789,-0.11914 -14.435546,9.66406 -42.939453,-0.0527 -3.015625,-3.67773 29.722656,0.16992 -4.71289,-2.24414 H 38.474609 l -3.365234,-4.11328 35.359375,0.0742 -5.537109,-2.76758 H 0 l -0.25,2.61719 32.566406,0.0703 3.515625,4.11914 H -0.25 v 2.46875 l 43.039062,-0.44922 2.69336,3.72071 L 0,216.11719 v 11.89453 l 46.753906,0.15039 7.107422,-7.78125 46.753902,-0.29883 c 8.43794,-0.51953 16.29841,0.38819 21.61915,7.7793 l 86.85156,0.15039 c 7.39512,-8.39678 13.10521,-7.861 19.89844,-7.70508 l 47.27734,0.22266 6.6582,7.4082 L 330,227.9355 v -11.89258 l -45.64844,0.0137 2.60938,-3.60547 L 330,212.90039 v -2.46875 H 293.91797 L 297.43359,206.3125 330,206.24219 329.75,203.625 h -64.93164 l -5.53711,2.76758 35.35937,-0.0742 -3.36523,4.11328 h -38.72656 l -4.71289,2.24414 29.72265,-0.16992 -2.91406,3.55273 -42.74219,0.0137 -13.8789,-9.3711 -6.06446,-0.01 -4.21875,-3.06641 z m 0.74024,4.36719 h 83.18554 l 4.48828,3.58984 5.68555,-0.44922 6.73242,4.78711 c -10.26982,1.63335 -12.80097,4.89729 -15.71093,8.08008 h -84.53126 c -3.19308,-3.68041 -6.02183,-7.50079 -17.35546,-8.08008 l 5.98437,-4.63672 h 6.88281 z m -77.500004,4.68359 3.15039,0.0176 2.763672,3.69141 -3.070312,-0.004 z m 237.292964,0 -2.7539,3.58789 h -3.06836 l 2.67187,-3.57031 z" /></g></svg>
