<?xml version="1.0" encoding="UTF-8" standalone="no"?>
<!-- Created with Inkscape (http://www.inkscape.org/) -->

<svg
   width="70"
   height="68.400818"
   viewBox="0 0 70 68.400817"
   version="1.1"
   id="svg1"
   xml:space="preserve"
   xmlns="http://www.w3.org/2000/svg"
   xmlns:svg="http://www.w3.org/2000/svg"><defs
     id="defs1" /><g
     id="abilityShape"
     transform="translate(-24.5,-24.599609)"
     style="display:inline"><path
       style="fill:#000000;fill-opacity:1;stroke:#000000;stroke-width:1;stroke-linecap:round;stroke-linejoin:miter;stroke-dasharray:none;stroke-dashoffset:0.3;stroke-opacity:1"
       d="m 26.5,54.599609 v 6 l 3,3 h 60 l 3,-3 v -6 z"
       id="pathAb1" /><path
       id="pathAb2"
       style="display:inline;fill:#ffffff;fill-opacity:1;stroke:#000000;stroke-width:1;stroke-linecap:round;stroke-linejoin:miter;stroke-dasharray:none;stroke-opacity:1"
       d="m 25,27.099609 c 0,8.588542 0,17.177084 0,25.765625 1.477797,1.523484 2.957119,3.045488 4.435547,4.56836 0,7.615234 0,15.230469 0,22.845703 C 39.456907,84.340151 49.478544,88.40032 59.5,92.460938 69.521456,88.40032 79.543093,84.340151 89.564453,80.279297 c 0,-7.615234 0,-15.230469 0,-22.845703 1.478432,-1.522868 2.957744,-3.044882 4.435547,-4.56836 0,-9.255208 0,-18.510416 0,-27.765625 -23,0 -46,0 -69,0 0,0.666667 0,1.333334 0,2 z" /><path
       id="pathAb3"
       style="display:inline;fill:#ffffff;fill-opacity:1;stroke:#838383;stroke-width:0.5;stroke-linecap:round;stroke-linejoin:miter;stroke-dasharray:none;stroke-opacity:1"
       d="m 29,29.1 v 22.144141 c 1.478432,1.522867 2.957743,3.044881 4.435547,4.568359 V 77.583984 L 59.5,88.144531 85.564453,77.583984 V 55.8125 C 87.04225,54.289016 88.521572,52.767012 90,51.244141 V 29.1" /></g></svg>
