<?xml version="1.0" encoding="UTF-8" standalone="no"?>
<!-- Created with Inkscape (http://www.inkscape.org/) -->

<svg
   width="31.999998"
   height="32"
   viewBox="0 0 31.999999 32"
   version="1.1"
   id="svg1"
   xml:space="preserve"
   xmlns:xlink="http://www.w3.org/1999/xlink"
   xmlns="http://www.w3.org/2000/svg"
   xmlns:svg="http://www.w3.org/2000/svg"><defs
     id="defs1"><linearGradient
       id="swatch2"
       gradientTransform="matrix(0.21463748,0,0,0.21463748,521.76247,-128.59581)"><stop
         style="stop-color:#ffffff;stop-opacity:1;"
         offset="0"
         id="stop2" /></linearGradient><linearGradient
       xlink:href="#swatch2"
       id="linearGradient16"
       x1="-979.30493"
       y1="-30.760933"
       x2="-957.31274"
       y2="-30.760933"
       gradientUnits="userSpaceOnUse"
       gradientTransform="matrix(1.4193234,0,0,1.4193234,405.64157,12.627818)" /></defs><g
     id="layer2-6"
     transform="translate(984.30883,46.760927)"><path
       id="path58"
       style="display:inline;fill:url(#linearGradient16);fill-opacity:1;stroke:none;stroke-width:56.7729;stroke-linecap:round;stroke-linejoin:round"
       d="m -968.65192,-46.760933 -1.90166,6.583773 2.29253,6.145784 2.29255,-6.633677 -2.0486,1.657728 z m -5.75492,3.706308 0.0971,6.827726 4.63221,3.6592 -3.36535,-4.73201 1.75752,0.778967 z m 11.41281,1.754752 -1.51358,3.85325 -3.60929,4.731996 10.33999,-6.974641 -4.72922,2.095716 z m -20.92393,5.072974 7.50967,2.292548 1.21972,1.463677 3.6592,-0.243953 -4.53519,-2.780426 z m 24.23939,0.09708 -7.26572,4.341128 10.48413,-0.584903 2.68342,-1.804656 -6.43686,-0.146928 z m -0.39087,5.169999 -2.97449,0.02498 -2.97448,0.02498 3.95026,3.218429 8.97335,0.243939 -8.6795,-2.195509 z m -11.02194,0.04996 -13.21745,0.146914 7.02454,1.316763 -0.29384,1.901666 z m 1.31676,1.022906 -9.94913,5.901845 5.07298,-1.804656 0.73183,3.512272 z m 2.48659,0.146928 2.63628,3.315455 -1.41656,0.440756 2.34244,5.314146 0.48789,-5.899063 z m -1.26686,0.487893 -2.97448,6.97464 1.90167,-1.754752 0.92588,8.729388 2.19552,-8.097349 z" /></g></svg>
