<?xml version="1.0" encoding="UTF-8" standalone="no"?>
<!-- Created with Inkscape (http://www.inkscape.org/) -->

<svg
   width="21.992188"
   height="22.164062"
   viewBox="0 0 21.992188 22.164062"
   version="1.1"
   id="arcanaIcon"
   xml:space="preserve"
   xmlns:inkscape="http://www.inkscape.org/namespaces/inkscape"
   xmlns:sodipodi="http://sodipodi.sourceforge.net/DTD/sodipodi-0.dtd"
   xmlns="http://www.w3.org/2000/svg"
   xmlns:svg="http://www.w3.org/2000/svg"><sodipodi:namedview
     id="namedview1"
     pagecolor="#ffffff"
     bordercolor="#111111"
     borderopacity="1"
     inkscape:showpageshadow="0"
     inkscape:pageopacity="0"
     inkscape:pagecheckerboard="1"
     inkscape:deskcolor="#d1d1d1"
     inkscape:document-units="px" /><defs
     id="defs1" /><g
     inkscape:groupmode="layer"
     id="layer2"
     inkscape:label="Layer 2"
     transform="translate(-5.7382812,-5.0175781)"><path
       id="path58"
       style="fill:#ffffff;fill-opacity:1;stroke:none;stroke-width:40;stroke-linecap:round;stroke-linejoin:round"
       d="M 16.769531,5.0175781 15.429688,9.65625 17.044922,13.986328 18.660156,9.3125 17.216797,10.480469 Z m -4.054687,2.6113281 0.06836,4.8105468 3.263672,2.578125 -2.371094,-3.333984 1.238281,0.548828 z M 20.755859,8.8652344 19.689453,11.580078 17.146484,14.914062 24.431641,10 21.099609,11.476562 Z m -14.7421871,3.5742186 5.2910161,1.615235 0.859374,1.03125 2.578126,-0.171876 -3.195313,-1.958984 z m 17.0781251,0.06836 -5.119141,3.058594 7.386719,-0.412109 L 27.25,13.882812 22.714844,13.779297 Z m -0.275391,3.642579 -4.191406,0.03516 2.783203,2.267578 6.322266,0.171875 -6.115235,-1.546875 z m -7.765625,0.03516 -9.3124998,0.103515 4.9492188,0.927735 -0.207031,1.339844 z m 0.927735,0.720703 -7.009766,4.158203 3.574219,-1.271484 0.515625,2.474609 z m 1.751953,0.103516 1.857422,2.335937 -0.998047,0.310547 1.65039,3.744141 0.34375,-4.15625 z m -0.892578,0.34375 -2.095703,4.914062 1.339843,-1.236328 0.652344,6.150391 1.546875,-5.705079 z" /></g></svg>
