<?xml version="1.0" encoding="UTF-8" standalone="no"?>
<!-- Created with Inkscape (http://www.inkscape.org/) -->

<svg
   width="22.606119"
   height="25.517578"
   viewBox="0 0 22.606119 25.517578"
   version="1.1"
   id="bladeIcon"
   xml:space="preserve"
   xmlns:inkscape="http://www.inkscape.org/namespaces/inkscape"
   xmlns:sodipodi="http://sodipodi.sourceforge.net/DTD/sodipodi-0.dtd"
   xmlns="http://www.w3.org/2000/svg"
   xmlns:svg="http://www.w3.org/2000/svg"><sodipodi:namedview
     id="namedview1"
     pagecolor="#ffffff"
     bordercolor="#111111"
     borderopacity="1"
     inkscape:showpageshadow="0"
     inkscape:pageopacity="0"
     inkscape:pagecheckerboard="1"
     inkscape:deskcolor="#d1d1d1"
     inkscape:document-units="px" /><defs
     id="defs1" /><g
     inkscape:groupmode="layer"
     id="layer2"
     inkscape:label="Layer 2"
     transform="translate(-3.3457031,-3.6894531)"><path
       id="path57"
       style="display:inline;fill:#ffffff;fill-opacity:1;stroke:none;stroke-width:40;stroke-linecap:round;stroke-linejoin:round"
       d="m 24.876953,3.6894531 c 0,0 0.304042,3.5146346 -4.162109,5.7460938 -2.711956,1.3549951 -6.132813,0.3007812 -6.132813,0.3007812 0,0 1.318164,-0.1692085 1.857422,-0.1328125 0.653177,0.044085 2.216797,-0.3828125 2.216797,-0.3828125 0,0 -2.971698,-0.6728925 -4.330078,-1.1582031 -1.37298,-0.4905267 -3.947266,-1.8867188 -3.947266,-1.8867188 0,0 1.556803,3.1373208 1.416016,4.8906248 -0.140824,1.753768 -2.1875001,4.716797 -2.1875001,4.716797 0,0 3.1692841,-1.959836 4.8027341,-1.84375 1.732537,0.123128 3.068663,0.763736 3.646485,2.058594 C 19.155588,18.460711 17.5,21.101563 17.5,21.101562 c 0,0 4.906296,-1.436265 7.503906,-7.46289 2.204505,-5.1145949 -0.126953,-9.9492189 -0.126953,-9.9492189 z m -9.951172,11.1933589 -1.886719,0.04297 c 0,0 -1.194905,0.08791 -3.8183589,2.101563 -1.1892128,0.91279 -2.1015625,2.445312 -2.1015625,2.445312 0,0 0.7139238,-0.21551 1.0722656,-0.257812 0.2874881,-0.03394 0.7304688,0.171875 0.7304688,0.171875 0,0 -1.4820728,0.65987 -2.3164062,1.24414 -1.6737804,1.172122 -1.4589844,2.357422 -1.4589844,2.357422 0,0 0.5835069,-0.42541 0.9863281,-0.513672 0.2686281,-0.05886 0.8574219,-0.04297 0.8574219,-0.04297 0,0 -1.7408374,1.011145 -2.5722656,1.84375 -0.4345071,0.435121 -1.0722657,1.501953 -1.0722657,1.501953 0,0 1.3055038,0.93904 2.1445313,1.542968 0.6761593,0.486698 2.1445312,1.886719 2.1445312,1.886719 0,0 -0.421565,-5.807053 2.7871094,-9.648437 1.959188,-2.345514 4.503906,-4.675781 4.503906,-4.675781 z" /></g></svg>
