<?xml version="1.0" encoding="UTF-8" standalone="no"?>
<!-- Created with Inkscape (http://www.inkscape.org/) -->

<svg
   width="31.999998"
   height="32"
   viewBox="0 0 31.999999 32"
   version="1.1"
   id="bladeIcon"
   xml:space="preserve"
   xmlns:xlink="http://www.w3.org/1999/xlink"
   xmlns="http://www.w3.org/2000/svg"
   xmlns:svg="http://www.w3.org/2000/svg"><defs
     id="defs1"><linearGradient
       id="swatch2"
       gradientTransform="matrix(0.21463748,0,0,0.21463748,521.76247,-128.59581)"><stop
         style="stop-color:#ffffff;stop-opacity:1;"
         offset="0"
         id="stop2" /></linearGradient><linearGradient
       xlink:href="#swatch2"
       id="linearGradient20"
       x1="-938.33972"
       y1="-30.760935"
       x2="-915.73358"
       y2="-30.760935"
       gradientUnits="userSpaceOnUse"
       gradientTransform="matrix(1.2540375,0,0,1.2540375,235.50214,7.81443)" /></defs><g
     id="layer2-6"
     transform="translate(943.03667,46.760927)"><path
       id="path57"
       style="font-variation-settings:normal;display:inline;opacity:1;vector-effect:none;fill:url(#linearGradient20);fill-opacity:1;stroke:none;stroke-width:50.1616;stroke-linecap:round;stroke-linejoin:round;stroke-miterlimit:4;stroke-dasharray:none;stroke-dashoffset:0;stroke-opacity:1;-inkscape-stroke:none;stop-color:#000000;stop-opacity:1"
       d="m -914.21014,-46.760933 c 0,0 0.38128,4.407479 -5.21945,7.205813 -3.40087,1.699221 -7.69077,0.377202 -7.69077,0.377202 0,0 1.65302,-0.212196 2.32928,-0.166561 0.81912,0.0553 2.77994,-0.480059 2.77994,-0.480059 0,0 -3.72662,-0.843829 -5.43008,-1.452426 -1.72176,-0.615142 -4.95,-2.366018 -4.95,-2.366018 0,0 1.95228,3.934318 1.77573,6.133021 -0.1766,2.199294 -2.74322,5.915045 -2.74322,5.915045 0,0 3.97441,-2.457713 6.02282,-2.312132 2.17266,0.15441 3.84822,0.957759 4.57282,2.58155 1.37813,3.08828 -0.69804,6.400005 -0.69804,6.400005 0,0 6.15268,-1.801136 9.41019,-9.358744 2.76452,-6.413901 -0.15922,-12.476696 -0.15922,-12.476696 z m -12.47914,14.036894 -2.36601,0.05392 c 0,0 -1.49846,0.110236 -4.78838,2.635436 -1.49131,1.144673 -2.63543,3.066511 -2.63543,3.066511 0,0 0.89528,-0.270258 1.34466,-0.323304 0.36052,-0.04252 0.91603,0.215544 0.91603,0.215544 0,0 -1.85857,0.827502 -2.90485,1.560198 -2.09898,1.469883 -1.82963,2.956293 -1.82963,2.956293 0,0 0.73174,-0.53348 1.23689,-0.644161 0.33688,-0.07386 1.07524,-0.05392 1.07524,-0.05392 0,0 -2.18307,1.268008 -3.22571,2.312132 -0.54489,0.545656 -1.34466,1.883501 -1.34466,1.883501 0,0 1.63715,1.177592 2.68931,1.93493 0.84794,0.61034 2.68933,2.366018 2.68933,2.366018 0,0 -0.52866,-7.282259 3.49513,-12.099494 2.45691,-2.941358 5.64808,-5.863604 5.64808,-5.863604 z" /></g></svg>
