<?xml version="1.0" encoding="UTF-8" standalone="no"?>
<!-- Created with Inkscape (http://www.inkscape.org/) -->

<svg
   width="18.43018"
   height="22.387493"
   viewBox="0 0 18.43018 22.387493"
   version="1.1"
   id="svg1"
   xml:space="preserve"
   xmlns="http://www.w3.org/2000/svg"
   xmlns:svg="http://www.w3.org/2000/svg"><defs
     id="defs1" /><g
     id="layer2"
     transform="translate(-7.8277774,-3.5332022)"><path
       id="path2"
       style="display:inline;fill:#000000;fill-opacity:1;stroke:none;stroke-width:40;stroke-linecap:round;stroke-linejoin:round"
       d="m 9.0546875,3.5332031 c 0,0 -1.2086732,3.4607301 -1.015625,5.6015625 0.078415,0.8695964 0.8925781,3.2480464 0.8925781,3.2480464 0,0 1.7542184,0.196233 2.5585934,0.529297 1.092475,0.452357 2.27646,0.985885 2.964844,1.947266 0.219773,0.306929 0.283203,1.097656 0.283203,1.097656 0,0 0.610367,-0.546589 0.8125,-0.894531 0.307438,-0.529208 0.56836,-1.744141 0.56836,-1.744141 0,0 -2.926206,-2.518909 -4.060547,-4.0605465 C 10.781338,7.5219471 9.0546875,3.5332031 9.0546875,3.5332031 Z m 15.9570315,0 c 0,0 -1.520448,3.9074861 -2.720703,5.6015625 -1.211627,1.7101264 -4.425782,4.4667964 -4.425782,4.4667964 0,1e-6 -0.727194,-0.302578 -1.015625,-0.121093 -0.568731,0.357852 -0.65039,1.908203 -0.65039,1.908203 0,0 -3.87566,4.613631 -6.496094,5.927734 -0.320311,0.16063 -0.7714844,0.527344 -0.7714844,0.527344 0,0 0.3425778,0.532015 0.7714844,0.609375 0.442745,0.07986 0.911823,-0.301263 1.300781,-0.527344 1.395544,-0.811152 3.133883,-2.590076 4.429688,-4.035156 -1.327553,1.523258 -3.101255,3.482114 -4.390625,4.603516 -0.322932,0.280862 -0.649041,0.594015 -1.0546878,0.730468 -0.5906299,0.198681 -1.4534832,-0.385933 -1.8671874,0.08008 -0.477564,0.537944 -0.3352033,1.632601 0.1621093,2.152343 0.2355943,0.24622 0.7181272,0.289252 1.015625,0.123047 0.3383344,-0.189019 0.1215883,-0.681491 0.4863281,-0.8125 0.3816938,-0.137098 0.7945508,0.01156 1.0957028,0.283203 0.153401,0.138371 0.153722,0.415545 0.326172,0.529297 0.308363,0.2034 0.785241,0.362294 1.095703,0.16211 0.248412,-0.160182 0.240541,-0.557951 0.244141,-0.853516 0.0046,-0.377471 -0.351646,-0.724107 -0.285156,-1.095703 0.06679,-0.373265 0.420734,-0.631856 0.65039,-0.933594 0.756685,-0.994179 2.394532,-2.882813 2.394532,-2.882813 l 2.234375,-2.435546 c 0,0 2.166958,0.505139 3.083984,0.03906 0.917265,-0.466198 1.787109,-2.517578 1.787109,-2.517578 0,0 -0.883763,1.035851 -1.501953,1.21875 -0.613402,0.181483 -1.908203,-0.203125 -1.908203,-0.203125 0,0 1.539076,-1.981274 2.597656,-2.597656 1.055539,-0.614612 3.533203,-0.97461 3.533203,-0.97461 0,0 0.873999,-2.5656238 0.892579,-3.8984371 0.02405,-1.7250836 -1.013672,-5.0742188 -1.013672,-5.0742188 z M 11.9375,14.697266 c 0,0 -0.131072,1.282481 0.203125,1.787109 0.286026,0.431893 1.419922,0.853516 1.419922,0.853516 l 0.933594,-0.97461 c 0,0 -1.219269,-0.216429 -1.623047,-0.447265 -0.543151,-0.310515 -0.933594,-1.21875 -0.933594,-1.21875 z m 6.171875,3.412109 c 0,0 -0.188224,0.71812 -0.08203,1.054687 0.622049,1.971531 3.9375,4.791016 3.9375,4.791016 0,0 -0.421353,0.445976 -0.445313,0.730469 -0.03058,0.363129 0.08295,0.847476 0.40625,1.015625 0.41939,0.218125 0.933447,-0.166006 1.378907,-0.324219 0.467724,-0.166122 0.680284,-0.434517 1.138671,-0.244141 0.38341,0.159238 0.207105,0.661452 0.607422,0.771485 0.444467,0.122168 0.886118,-0.464329 1.056641,-0.892578 0.226689,-0.569306 0.226428,-1.391114 -0.203125,-1.828125 -0.669574,-0.681201 -1.99258,0.07202 -2.841797,-0.365235 -1.805053,-0.929414 -4.142578,-4.466797 -4.142578,-4.466797 z m 1.541016,0 c 0,0 2.713269,4.087955 3.898437,4.140625 l 1.828125,0.08203 c 0.275769,0.01226 0.162109,-0.8125 0.162109,-0.8125 10e-7,0 -0.870771,0.116754 -1.259765,-0.04102 -1.509284,-0.612139 -3.613281,-3.289063 -3.613281,-3.289063 z" /></g></svg>
