<?xml version="1.0" encoding="UTF-8" standalone="no"?>
<!-- Created with Inkscape (http://www.inkscape.org/) -->

<svg
   width="31.999998"
   height="32"
   viewBox="0 0 31.999999 32"
   version="1.1"
   id="boneIcon"
   xml:space="preserve"
   xmlns:xlink="http://www.w3.org/1999/xlink"
   xmlns="http://www.w3.org/2000/svg"
   xmlns:svg="http://www.w3.org/2000/svg"><defs
     id="defs1"><linearGradient
       id="swatch2"
       gradientTransform="matrix(0.21463748,0,0,0.21463748,521.76247,-128.59581)"><stop
         style="stop-color:#ffffff;stop-opacity:1;"
         offset="0"
         id="stop2" /></linearGradient><linearGradient
       xlink:href="#swatch2"
       id="linearGradient29"
       x1="-897.77771"
       y1="-30.760937"
       x2="-879.34753"
       y2="-30.760937"
       gradientUnits="userSpaceOnUse"
       gradientTransform="matrix(1.4293699,0,0,1.4293699,381.52198,13.207822)" /></defs><g
     id="layer2-6"
     transform="translate(904.56261,46.760927)"><path
       id="path53"
       style="font-variation-settings:normal;display:inline;opacity:1;vector-effect:none;fill:url(#linearGradient29);fill-opacity:1;stroke:none;stroke-width:57.1749;stroke-linecap:round;stroke-linejoin:round;stroke-miterlimit:4;stroke-dasharray:none;stroke-dashoffset:0;stroke-opacity:1;-inkscape-stroke:none;stop-color:#000000;stop-opacity:1"
       d="m -899.98069,-46.760933 c 0,0 -1.72765,4.946663 -1.45172,8.0067 0.11202,1.24298 1.27583,4.642666 1.27583,4.642666 0,0 2.50742,0.280485 3.65718,0.756565 1.56155,0.646575 3.2539,1.409187 4.23786,2.783355 0.31413,0.438717 0.40481,1.568961 0.40481,1.568961 0,0 0.87243,-0.781278 1.16136,-1.278613 0.43944,-0.756438 0.81238,-2.493022 0.81238,-2.493022 0,0 -4.18263,-3.600453 -5.80402,-5.804028 -1.82566,-2.481199 -4.29368,-8.182584 -4.29368,-8.182584 z m 22.8085,0 c 0,0 -2.17329,5.585247 -3.8889,8.0067 -1.73187,2.444409 -6.32608,6.384709 -6.32608,6.384709 0,0 -1.03942,-0.432497 -1.45169,-0.173081 -0.81294,0.5115 -0.92965,2.727523 -0.92965,2.727523 0,0 -5.53976,6.594584 -9.28535,8.472918 -0.45782,0.2296 -1.10272,0.753778 -1.10272,0.753778 0,0 0.48967,0.76044 1.10272,0.871016 0.63286,0.114203 1.30335,-0.430612 1.85932,-0.753764 1.99474,-1.159434 4.47948,-3.702182 6.33166,-5.767736 -1.89757,2.177301 -4.43284,4.977238 -6.27583,6.580132 -0.46159,0.401453 -0.92771,0.849061 -1.50755,1.044112 -0.84422,0.283986 -2.07755,-0.551651 -2.66889,0.114498 -0.68262,0.768914 -0.47913,2.333588 0.23171,3.076489 0.33676,0.351939 1.02648,0.413445 1.45171,0.175884 0.48359,-0.270179 0.1738,-0.974101 0.69515,-1.161363 0.54557,-0.195967 1.1357,0.01658 1.56616,0.404798 0.21926,0.197782 0.21972,0.59396 0.46622,0.756565 0.44076,0.290733 1.1224,0.517847 1.56615,0.231715 0.35509,-0.22897 0.34383,-0.797517 0.34897,-1.219996 0.007,-0.539544 -0.50263,-1.03502 -0.40757,-1.56616 0.0954,-0.53354 0.60137,-0.903161 0.92963,-1.33446 1.08158,-1.421051 3.42267,-4.120602 3.42267,-4.120602 l 3.19376,-3.481301 c 0,0 3.09737,0.722033 4.40815,0.05589 1.3111,-0.666359 2.55444,-3.598539 2.55444,-3.598539 0,0 -1.26322,1.480613 -2.14684,1.742045 -0.8768,0.259402 -2.72754,-0.290349 -2.72754,-0.290349 0,0 2.19991,-2.831966 3.71302,-3.713001 1.50876,-0.87852 5.05024,-1.393079 5.05024,-1.393079 0,0 1.24928,-3.667234 1.27583,-5.572313 0.0342,-2.465791 -1.4489,-7.252936 -1.4489,-7.252936 z m -18.6879,15.95757 c 0,0 -0.18735,1.833139 0.29033,2.554442 0.40883,0.617345 2.0296,1.219995 2.0296,1.219995 l 1.33445,-1.393078 c 0,0 -1.74279,-0.309358 -2.31994,-0.639314 -0.77636,-0.443834 -1.33444,-1.742045 -1.33444,-1.742045 z m 8.82189,4.877168 c 0,0 -0.26904,1.026458 -0.11721,1.507541 0.88915,2.818045 5.62814,6.848139 5.62814,6.848139 0,0 -0.60225,0.637457 -0.63651,1.044098 -0.0438,0.519048 0.11851,1.211362 0.58069,1.451711 0.59946,0.311774 1.33425,-0.23729 1.97097,-0.463431 0.66854,-0.237446 0.97237,-0.62109 1.62757,-0.348966 0.54805,0.227613 0.29604,0.945457 0.86824,1.102731 0.63531,0.174626 1.26658,-0.663685 1.51032,-1.275813 0.32404,-0.813754 0.32366,-1.988425 -0.29032,-2.613074 -0.95708,-0.973687 -2.84814,0.102917 -4.062,-0.522048 -2.58007,-1.328485 -5.92127,-6.38471 -5.92127,-6.38471 z m 2.20268,0 c 0,0 3.87827,5.843206 5.57231,5.918491 l 2.61305,0.117203 c 0.39419,0.01759 0.23173,-1.161362 0.23173,-1.161362 0,0 -1.24465,0.166879 -1.80067,-0.0586 -2.15733,-0.874975 -5.16471,-4.701298 -5.16471,-4.701298 z" /></g></svg>
