<?xml version="1.0" encoding="UTF-8" standalone="no"?>
<!-- Created with Inkscape (http://www.inkscape.org/) -->

<svg
   width="330"
   height="465"
   viewBox="0 0 330 464.99999"
   version="1.1"
   id="classFiligree"
   xml:space="preserve"
   xmlns:xlink="http://www.w3.org/1999/xlink"
   xmlns="http://www.w3.org/2000/svg"
   xmlns:svg="http://www.w3.org/2000/svg"><defs
     id="defs1"><linearGradient
       id="swatch139"><stop
         style="stop-color:#ffcb74;stop-opacity:1;"
         offset="0"
         id="stop139" /></linearGradient><linearGradient
       id="linearGradient5"><stop
         style="stop-color:#ffcb74;stop-opacity:1;"
         offset="0"
         id="stop5" /><stop
         style="stop-color:#feef92;stop-opacity:1;"
         offset="0.40000001"
         id="stop6" /><stop
         style="stop-color:#feef92;stop-opacity:1;"
         offset="0.60000002"
         id="stop8" /><stop
         style="stop-color:#ffcb74;stop-opacity:1;"
         offset="1"
         id="stop7" /></linearGradient><linearGradient
       id="linearGradient169"><stop
         style="stop-color:#000000;stop-opacity:1;"
         offset="0"
         id="stop169" /><stop
         style="stop-color:#000000;stop-opacity:0;"
         offset="0.81"
         id="stop170" /></linearGradient><filter
       style="color-interpolation-filters:sRGB"
       id="filter170-3"
       x="-0.018830226"
       y="-0.25930813"
       width="1.0376605"
       height="1.5186163"><feGaussianBlur
         stdDeviation="0.92266261"
         id="feGaussianBlur170-7" /></filter><linearGradient
       xlink:href="#linearGradient169"
       id="linearGradient237"
       gradientUnits="userSpaceOnUse"
       gradientTransform="translate(-0.2998,-78.48659)"
       x1="165.36426"
       y1="203.52235"
       x2="165.84375"
       y2="223.79492" /><linearGradient
       xlink:href="#linearGradient5"
       id="linearGradient238"
       gradientUnits="userSpaceOnUse"
       gradientTransform="translate(-0.2998,-78.48659)"
       x1="-0.25"
       y1="215.79102"
       x2="330"
       y2="215.79102" /><linearGradient
       xlink:href="#swatch139"
       id="linearGradient239"
       gradientUnits="userSpaceOnUse"
       x1="-0.82476193"
       y1="196.10437"
       x2="329.97516"
       y2="196.10437"
       gradientTransform="translate(0,-58.799947)" /></defs><g
     id="layer6-4"
     style="display:inline"
     transform="translate(0.3622711,6.4229552)"><path
       style="display:inline;fill:#ffffff;fill-opacity:1;stroke:none;stroke-width:0.2;stroke-linecap:round;stroke-dasharray:none;stroke-dashoffset:0.3;stroke-opacity:1"
       d="m -0.2998,149.52503 46.753906,0.15039 7.107422,-7.78125 51.252632,-0.41097 c 6.56447,0.60665 12.34022,0.82122 17.12042,7.89144 l 86.85156,0.15039 c 5.42283,-7.5359 8.43739,-7.85567 15.71739,-7.76704 l 51.45839,0.28462 6.6582,7.4082 47.08008,-0.002 -0.0625,309.12823 H -0.36230424 Z"
       id="path106-6" /><path
       id="path118-8-2"
       style="display:inline;fill:url(#linearGradient237);fill-opacity:0.358277;stroke:none;stroke-width:0.2;stroke-linecap:round;stroke-dasharray:none;stroke-dashoffset:0.3;stroke-opacity:1;filter:url(#filter170-3)"
       d="m 119.94825,134.22229 c -0.61925,0.64745 -1.56532,0.26752 -2.35821,0.36914 -1.6664,1e-5 -3.33281,0 -4.99922,0 -0.60742,0.47071 -2.97027,2.42591 -3.57769,2.89661 l -3.09027,-0.25989 5.98437,-4.63672 h 6.88281 l 4.63868,-3.29101 h 83.18554 l 10.17383,3.14062 6.73242,4.78711 -3.0687,0.61188 -4.82826,-3.30087 c -1.71728,0.13592 -3.43458,0.27173 -5.15187,0.40774 -1.5211,-1.21434 -3.04026,-2.43111 -4.56054,-3.64648 h -81.84375 c -1.37305,0.97396 -2.7461,1.94792 -4.11914,2.92187 z" /><path
       id="path100-0"
       style="display:inline;fill:url(#linearGradient238);stroke:url(#linearGradient239);stroke-width:0.5;stroke-linecap:round;stroke-dashoffset:0.3;stroke-opacity:1"
       d="m 122.68848,124.93323 -4.56836,3.27149 -5.83789,-0.11914 -11.96692,9.21885 -51.334787,0.17627 -9.726095,-12.56679 -39.554228,0.22442 -0.25,2.61719 38.566406,0.0703 3.515625,4.11914 H -0.5498 v 2.46875 l 43.039062,-0.44922 2.69336,3.72071 -45.482422,-0.0547 v 11.89453 l 46.753906,0.15039 7.107422,-7.78125 46.753902,-0.29883 c 8.43794,-0.51953 16.29841,0.38819 21.61915,7.7793 l 86.85156,0.15039 c 7.39512,-8.39678 13.10521,-7.861 19.89844,-7.70508 l 47.27734,0.22266 6.6582,7.4082 47.08008,-0.002 v -11.89258 l -45.64844,0.0137 2.60938,-3.60547 43.03906,0.44924 v -2.46875 h -42.08203 l 3.19824,-4.27783 38.88379,0.0884 -0.0625,-2.692 -40.64253,0.0222 -9.0434,12.2217 -48.34922,0.27818 -13.8789,-9.3711 -6.06446,-0.01 -4.21875,-3.06641 z m 0.74024,4.36719 h 83.18554 l 4.48828,3.58984 5.68555,-0.44922 6.73242,4.78711 c -10.26982,1.63335 -12.80097,4.89729 -15.71093,8.08008 h -84.53126 c -3.19308,-3.68041 -6.02183,-7.50079 -17.35546,-8.08008 l 5.98437,-4.63672 h 6.88281 z" /></g></svg>
