<?xml version="1.0" encoding="UTF-8" standalone="no"?>
<!-- Created with Inkscape (http://www.inkscape.org/) -->

<svg
   width="156"
   height="156"
   viewBox="0 0 156 156"
   version="1.1"
   id="svg1"
   xml:space="preserve"
   xmlns:xlink="http://www.w3.org/1999/xlink"
   xmlns="http://www.w3.org/2000/svg"
   xmlns:svg="http://www.w3.org/2000/svg"><defs
     id="defs1"><style
       id="style1">&#10;      .cls-1 {&#10;        fill: url(#linear-gradient);&#10;      }&#10;&#10;      .cls-2 {&#10;        fill: #1e194d;&#10;      }&#10;    </style><linearGradient
       id="linear-gradient"
       x1="23.92"
       y1="13.42"
       x2="61.309299"
       y2="96.164383"
       gradientUnits="userSpaceOnUse"><stop
         offset="0"
         stop-color="#382d7a"
         id="stop1-0" /><stop
         offset=".12"
         stop-color="#36337f"
         id="stop2-6" /><stop
         offset=".3"
         stop-color="#324590"
         id="stop3-9" /><stop
         offset=".5"
         stop-color="#2c63ab"
         id="stop4-7" /><stop
         offset=".61"
         stop-color="#2878be"
         id="stop5-8" /><stop
         offset="1"
         stop-color="#81cdc3"
         id="stop6-6" /></linearGradient><linearGradient
       xlink:href="#linear-gradient"
       id="linearGradient27"
       gradientUnits="userSpaceOnUse"
       x1="23.92"
       y1="13.42"
       x2="61.309299"
       y2="96.164383" /><linearGradient
       xlink:href="#linear-gradient"
       id="linearGradient28"
       gradientUnits="userSpaceOnUse"
       x1="23.92"
       y1="13.42"
       x2="61.309299"
       y2="96.164383" /></defs><g
     id="g20"
     transform="matrix(0.9101103,0,0,0.9101103,29.748551,6.7052588)"><path
       style="display:inline;fill:#161c4f;fill-opacity:1;stroke:none;stroke-width:5.2;stroke-linecap:round;stroke-linejoin:round;stroke-dasharray:none;stroke-opacity:1"
       d="m 101.08808,8.7484863 -5.800932,2.2248767 -3.41417,5.113205 0.687622,4.263687 -1.876766,1.537188 -0.687622,1.876998 0.347836,1.876998 -4.441789,5.461093 -5.800931,5.461084 c 0,0 -7.546042,-3.482569 -11.601758,-3.753996 -2.53526,-0.169666 -7.499755,1.359204 -7.499755,1.359204 l -2.394707,5.970792 c 0,0 6.278941,-1.734068 9.384889,-1.189306 2.581546,0.452783 6.153428,1.103121 6.998126,3.584097 0.688363,2.021284 -0.930916,4.649767 -2.734492,5.792796 -1.920298,1.216973 -7.09762,0.264363 -7.09762,0.264363 l -2.242733,3.981271 c 0.504222,1.229282 0.883393,2.181771 1.064675,3.149274 l 2.845776,-4.588539 2.533567,3.682204 -4.416965,6.592501 c -0.01266,0.424735 0.299318,1.90944 0.709562,2.746951 l 5.47729,-7.899611 3.003426,-0.930132 1.367405,0.679597 0.169787,2.394791 -7.072983,9.085169 c 3.239013,2.240064 4.420106,4.763314 4.994384,5.950268 L 84.057429,61.682353 c 0,0 -2.113124,-2.607186 -2.07923,-4.309971 0.04131,-2.061393 0.921701,-4.896102 2.904703,-5.461094 2.718604,-0.774566 5.55732,2.06186 7.329862,4.263693 2.211891,2.74774 3.244171,10.072677 3.244171,10.072677 l 4.26374,-4.271783 c 0,0 -0.983769,-7.306652 -2.556655,-10.574284 -1.247718,-2.592751 -5.291042,-6.820287 -5.291042,-6.820287 l 3.754273,-10.41248 2.556232,-2.726493 2.734707,-1.027491 1.18935,-3.066302 4.78147,-1.707099 2.89634,-4.433593 0.34794,-5.630978 -3.08626,-4.979537 z m 0.10451,1.3538487 4.26123,1.523697 -1.29962,1.903933 -5.015285,-0.02851 -2.041595,-1.878764 z m -5.289079,2.435826 1.689803,1.727928 -1.67,4.946513 -1.918192,1.038937 -0.624245,-3.814717 z m 10.704859,-0.0086 2.28441,3.348166 -0.39912,4.187252 -2.05257,-0.841598 -1.25916,-4.843883 z m -2.69545,2.499749 1.09922,4.471464 -3.58438,2.896404 -3.923637,-2.896404 1.367299,-4.603484 z m 2.01186,5.475148 2.15731,0.903651 -2.02419,2.980114 -3.40248,1.510045 -0.27421,-2.633758 z m -9.609907,0.185651 4.405637,2.841166 0.36757,2.789807 -6.99802,-4.77339 z m -3.754273,1.707079 7.329968,5.800892 -0.849253,1.027491 c 0,0 -0.606488,-0.292779 -1.18925,-0.129441 -0.615491,0.172359 -1.027725,1.148847 -1.027725,1.148847 l -5.631039,-3.923895 c 0,0 0.768755,-0.399934 0.833471,-1.213571 0.06567,-0.831205 -0.663261,-1.173123 -0.663261,-1.173123 z m -25.250387,11.79595 c 0.819384,0.0032 1.599366,0.04408 2.216976,0.145643 4.59717,0.75618 13.138632,4.781486 13.138632,4.781486 l -0.857409,-1.876997 0.857409,-0.857592 8.187694,5.630983 -0.460956,1.529113 -2.241019,-1.027501 c 0,0 3.880633,3.918331 5.768203,6.326781 5.544927,7.073583 4.611682,11.941572 4.611682,11.941572 L 96.82434,62.32382 c 0,0 0.618457,-2.542304 0.169893,-4.830026 -0.356309,-1.821936 -1.84372,-2.278194 -3.001618,-3.729718 -1.644911,-2.062886 -3.1033,-5.782315 -5.436785,-7.014473 -2.064135,-1.090023 -6.747418,-0.469239 -6.747418,-0.469239 0,0 -1.287119,-4.535365 -2.969207,-6.108328 -2.207866,-2.064859 -5.643961,-1.835903 -8.44624,-2.969215 -1.25026,-0.505395 -2.125356,-1.465256 -3.462998,-1.634276 -1.970504,-0.249047 -5.549906,1.618095 -5.549906,1.618095 l 0.639217,-2.67796 c 0,0 2.832466,-0.324676 5.290935,-0.315521 z m 10.105239,8.300857 c 0.381094,-0.0074 0.809427,0.101512 1.148684,0.501612 1.732717,2.043283 2.127898,4.870479 2.127898,4.870479 0,0 3.127872,-0.634327 4.530442,0.121376 1.484233,0.799553 1.537192,2.046897 1.537192,2.046897 0,0 -0.516034,-0.59335 -1.561235,-0.792877 -0.768755,-0.146713 -1.731446,0.170047 -1.731446,0.169878 l 0.938647,1.173133 c 0,0 -2.206595,0.216431 -3.64899,0.566329 -1.335524,0.324018 -4.061542,1.658554 -4.061542,1.658554 0,0 0.680525,-2.881388 0.566663,-4.109976 -0.11185,-1.216634 -0.679678,-3.826806 -0.679678,-3.826806 l 1.812262,1.06795 c 0,0 -0.306634,-1.398137 -0.671522,-1.998353 -0.314895,-0.515832 -1.197618,-1.237848 -1.197618,-1.237848 0,0 0.401854,-0.200567 0.890243,-0.210348 z m -2.022721,5.647164 -0.906343,5.250735 -2.960945,0.436887 -3.535446,-3.27665 c 0,0 2.67719,0.324264 3.980303,-0.09706 1.496731,-0.483906 3.422431,-2.313884 3.422431,-2.313884 z"
       id="path9-9"
       transform="rotate(7.481741,50.91492,57.798423)" /><path
       style="fill:#161c4f;fill-opacity:1;stroke-width:2;stroke-linejoin:round;stroke-dashoffset:0.3"
       d="m 50.698935,43.581822 4.851826,-3.073435 4.78188,8.392302 c -3.71275,-3.003278 -6.121626,-3.518987 -9.633706,-5.318867 z"
       id="path73" /><path
       style="fill:#161c4f;fill-opacity:1;stroke-width:2;stroke-linejoin:round;stroke-dashoffset:0.3"
       d="m 70.067921,93.341187 c 1.69445,-2.624057 2.87377,-8.226338 2.006639,-14.30266 l 4.867205,-4.244581 22.843842,36.614174 -13.751544,7.56779 z"
       id="path74" /><path
       id="path195"
       style="display:inline;fill:url(#linearGradient27);stroke:none;stroke-width:5.2;stroke-dasharray:none;stroke-opacity:1"
       class="cls-1"
       d="m 47.409906,5.8192444 c 0,0 1.780625,1.8211727 1.140625,2.7011718 -0.629999,0.8799992 -3.710236,0.6591404 -5.990234,0.3691407 -2.279998,-0.2899997 -3.820078,0.2700797 -3.580078,1.8300781 0.24,1.559998 2.439065,1.861253 5.039062,4.53125 2.609998,2.669997 -0.549143,2.969375 -3.36914,3.109375 -2.699984,0.580056 -4.652974,0.01678 -7.632341,2.099293 -1.947992,1.931993 -5.153425,4.891149 -0.593748,13.225751 1.516784,2.772518 8.553095,7.019615 12.549847,13.738597 1.02412,1.721659 0.752914,3.472033 0.506825,5.432767 l 23.046411,37.979603 c 0.376289,-1.607618 0.65505,-2.492778 0.933547,-3.895933 0.61,-3.399996 0.928589,-11.550863 -4.441406,-15.630859 -3.569996,-2.709998 -3.34914,-8.05852 -3.36914,-11.728516 -0.06,-9.82999 -6.639537,-10.95133 -11.519532,-13.361328 -4.189995,-2.069998 -10.250076,-7.889303 -8.830078,-14.279297 0.4,-1.799998 1.068751,-2.921094 1.96875,-3.621094 1.429999,-1.099999 2.979774,-1.019687 11.009766,-0.679687 2.569997,0.11 4.790705,0.180467 6.720703,-1.019531 0.499999,-0.31 1.600782,-1.019611 2.050781,-2.34961 0.04,-0.1 0.329141,-1.020235 0.119141,-1.990234 -0.41,-1.849998 -2.449225,-2.74055 -8.199219,-6.060547 h 0.01953 c -1.859998,-1.069999 -2.870546,-1.638751 -2.810547,-2.46875 0.09,-1.149999 2.831485,-1.681251 2.521485,-3.03125 -1.179993,-5.1299949 -7.29101,-4.9003906 -7.29101,-4.9003906 z" /><path
       id="path199"
       style="display:inline;fill:url(#linearGradient28)"
       class="cls-1"
       d="M 31.327972,40.521924 C 30.52673,39.859097 30.338775,39.789936 29.519281,39.069244 28.242094,37.94604 19.700692,28.939393 24.210687,21.479401 c 1.789999,-2.959997 4.548829,-3.789063 4.548829,-3.789063 -7.809993,-2.799997 -15.960003,0.850474 -18.25,5.480469 -6.359994,12.879987 4.885201,28.065221 6.760497,29.614658 z" /><path
       id="path39"
       style="fill:#161c4f;fill-opacity:1;stroke:none;stroke-width:5.2;stroke-linejoin:round;stroke-dasharray:none;stroke-dashoffset:0.3;stroke-opacity:1"
       d="M 34.941149,40.694367 -9.0925878,79.711041 32.378397,150.85506 90.580299,131.36 Z m 5.278205,17.224434 c 0.04189,-0.0087 0.08582,-0.0043 0.132786,0.01107 0.09394,0.03067 0.171817,0.101097 0.232373,0.210243 l 3.678146,6.6304 c 0.429954,0.774933 0.736565,1.553719 0.91843,2.337017 0.189229,0.776765 0.25353,1.526621 0.192539,2.248493 -0.06099,0.721873 -0.238178,1.39957 -0.533354,2.036038 -0.301231,0.625553 -0.717995,1.173962 -1.248179,1.644321 -0.530184,0.470359 -1.078854,0.777544 -1.646535,0.922856 -0.573737,0.134398 -1.139878,0.115581 -1.697435,-0.05754 C 39.690568,73.728578 39.150954,73.40188 38.63036,72.91909 38.109766,72.436299 37.635087,71.806262 37.205134,71.031329 l -3.678146,-6.6304 c -0.06056,-0.109146 -0.08661,-0.225323 -0.07746,-0.347455 0.0092,-0.122131 0.0503,-0.215734 0.123933,-0.281061 l 1.668665,-1.47834 c 0.07364,-0.06533 0.156143,-0.08379 0.250079,-0.05311 0.09394,0.03067 0.171817,0.101097 0.232373,0.210243 l 3.678146,6.6304 c 0.236172,0.425667 0.477867,0.741814 0.723679,0.9472 0.24712,0.187938 0.482593,0.303538 0.705974,0.349667 0.224689,0.02868 0.433118,0.0075 0.62409,-0.06418 0.19097,-0.0717 0.348417,-0.163366 0.4736,-0.274423 0.125182,-0.111057 0.246855,-0.2665 0.365158,-0.469174 0.118304,-0.202674 0.2001,-0.440005 0.247866,-0.7104 0.04171,-0.281308 0.03205,-0.598156 -0.03098,-0.949413 -0.06172,-0.368704 -0.210872,-0.764971 -0.447043,-1.190639 l -3.678146,-6.6304 c -0.06056,-0.109146 -0.08661,-0.225323 -0.07746,-0.347455 0.0092,-0.122131 0.0503,-0.215734 0.123932,-0.281061 l 1.668666,-1.480554 c 0.03682,-0.03266 0.0754,-0.0533 0.117293,-0.06197 z m -9.511835,8.416359 c 0.04189,-0.0087 0.08582,-0.0065 0.132785,0.0089 0.09394,0.03067 0.169604,0.101097 0.23016,0.210243 l 6.214341,11.198206 c 0.06056,0.109145 0.08661,0.225323 0.07746,0.347454 -0.0092,0.122131 -0.0503,0.215734 -0.123933,0.281062 l -1.635469,1.44957 c -0.07364,0.06533 -0.168154,0.102066 -0.285488,0.108441 -0.117334,0.0064 -0.223843,-0.01385 -0.316471,-0.06197 L 28.78435,76.424655 c -0.09263,-0.04812 -0.15753,-0.03879 -0.196964,0.02877 -0.03812,0.05011 -0.02736,0.12987 0.0332,0.239013 l 3.251021,5.86246 c 0.06056,0.109146 0.08661,0.225323 0.07746,0.347455 -0.0092,0.122131 -0.0503,0.215734 -0.123933,0.281061 l -1.646535,1.458423 c -0.07364,0.06533 -0.156143,0.08379 -0.250078,0.05311 -0.09394,-0.03067 -0.171817,-0.101098 -0.232374,-0.210243 L 23.484012,73.286458 c -0.06056,-0.109146 -0.08661,-0.225323 -0.07746,-0.347454 0.0092,-0.122132 0.0503,-0.215735 0.123932,-0.281062 l 1.657601,-1.469488 c 0.07364,-0.06533 0.168154,-0.102067 0.285487,-0.108441 0.111281,-0.01728 0.21278,-0.0016 0.305406,0.04648 l 6.205488,3.461263 c 0.09263,0.04812 0.158838,0.0479 0.196965,-0.0022 0.04549,-0.05665 0.03842,-0.140935 -0.02213,-0.250078 l -3.253234,-5.860247 c -0.06056,-0.109146 -0.08661,-0.225323 -0.07746,-0.347455 0.0092,-0.122131 0.05251,-0.215734 0.126146,-0.281061 l 1.633256,-1.44957 c 0.03682,-0.03266 0.07761,-0.0533 0.119507,-0.06197 z m -9.792898,8.686356 c 0.04189,-0.0087 0.08803,-0.0065 0.134998,0.0089 0.09394,0.03067 0.169604,0.101098 0.230161,0.210243 l 1.237114,2.226363 c 0.06056,0.109145 0.0844,0.225323 0.07524,0.347454 -0.0092,0.122131 -0.0503,0.215734 -0.123933,0.281062 l -3.434707,3.047417 c -0.07364,0.06533 -0.114776,0.15893 -0.123932,0.281061 -0.0092,0.122132 0.0169,0.238309 0.07746,0.347455 l 0.38065,0.688269 c 0.06056,0.109145 0.138438,0.177357 0.232374,0.20803 0.09394,0.03067 0.176442,0.01443 0.250078,-0.0509 l 2.994306,-2.65575 c 0.07364,-0.06533 0.158357,-0.08379 0.252292,-0.05311 0.09394,0.03067 0.169604,0.101097 0.230161,0.210243 l 1.254818,2.259559 c 0.06056,0.109145 0.08661,0.225323 0.07746,0.347454 -0.0092,0.122131 -0.05251,0.215734 -0.126145,0.281062 l -2.99209,2.655701 c -0.07364,0.06533 -0.114777,0.15893 -0.123933,0.281061 -0.0092,0.122131 0.0169,0.238309 0.07746,0.347454 l 0.345241,0.621877 c 0.06056,0.109146 0.136225,0.177357 0.230161,0.20803 0.09394,0.03067 0.178655,0.01443 0.252291,-0.0509 l 3.434707,-3.047417 c 0.07364,-0.06533 0.158356,-0.08379 0.252292,-0.05311 0.09394,0.03067 0.169604,0.101098 0.230161,0.210243 l 1.254818,2.259559 c 0.06056,0.109146 0.08661,0.225323 0.07746,0.347454 -0.0092,0.122132 -0.0503,0.215734 -0.123933,0.281062 l -5.623446,4.988292 c -0.07364,0.06533 -0.156144,0.08157 -0.250079,0.0509 -0.09394,-0.03067 -0.171817,-0.101098 -0.232374,-0.210243 l -6.21434,-11.198206 c -0.06056,-0.109146 -0.08661,-0.22311 -0.07746,-0.345241 0.0092,-0.122132 0.05251,-0.215735 0.126146,-0.281062 l 5.621233,-4.988292 c 0.03682,-0.03266 0.0754,-0.0533 0.117294,-0.06197 z m -8.666438,7.712598 c 0.04189,-0.0087 0.08803,-0.0065 0.134998,0.0089 0.09394,0.03067 0.169604,0.101097 0.230161,0.210243 l 6.205488,11.182714 c 0.06056,0.109146 0.08661,0.225323 0.07746,0.347454 -0.0092,0.122131 -0.05251,0.215734 -0.126146,0.281062 l -1.666452,1.47834 c -0.07364,0.06533 -0.158356,0.08379 -0.252292,0.05311 -0.09393,-0.03067 -0.171817,-0.101097 -0.232374,-0.210243 L 13.69554,90.814085 c -0.06056,-0.109146 -0.126849,-0.14083 -0.199177,-0.09295 -0.07233,0.04788 -0.106067,0.136842 -0.101802,0.263357 l 0.604172,6.081555 c 0.01163,0.119983 -0.02302,0.215843 -0.104015,0.287701 -0.081,0.07186 -0.166304,0.08353 -0.258931,0.03541 L 9.3180597,94.598459 c -0.085266,-0.05465 -0.1588803,-0.04536 -0.2190954,0.02434 -0.060216,0.06971 -0.058343,0.15864 0.00221,0.267784 l 2.9234847,5.271567 c 0.06056,0.10915 0.08661,0.22533 0.07746,0.34746 -0.0092,0.12213 -0.0503,0.21573 -0.123933,0.28106 l -1.668666,1.47834 c -0.07364,0.0653 -0.156143,0.0838 -0.250078,0.0531 -0.093936,-0.0307 -0.1718172,-0.1011 -0.2323741,-0.21024 L 3.623794,90.929165 C 3.563237,90.820019 3.53718,90.706055 3.546336,90.583924 3.555496,90.461793 3.596632,90.36819 3.6702687,90.302862 L 5.2172146,88.93075 c 0.073637,-0.06533 0.1681542,-0.102067 0.2854879,-0.108441 0.1173337,-0.0064 0.217928,0.01838 0.3031925,0.07303 l 4.682886,2.735372 c 0.09263,0.04812 0.169038,0.04562 0.227948,-0.0066 0.05891,-0.05226 0.08245,-0.13895 0.07082,-0.25893 l -0.440404,-6.497616 c -0.0043,-0.126512 0.01509,-0.258793 0.05975,-0.396142 0.04467,-0.137346 0.10341,-0.237865 0.177047,-0.303192 l 1.546946,-1.372112 c 0.03682,-0.03266 0.0754,-0.0533 0.117293,-0.06197 z" /></g></svg>
