<?xml version="1.0" encoding="UTF-8" standalone="no"?>
<!-- Created with Inkscape (http://www.inkscape.org/) -->

<svg
   width="330"
   height="460"
   viewBox="0 0 330 460"
   version="1.1"
   id="svg1"
   xml:space="preserve"
   xmlns:xlink="http://www.w3.org/1999/xlink"
   xmlns="http://www.w3.org/2000/svg"
   xmlns:svg="http://www.w3.org/2000/svg"><defs
     id="defs1"><linearGradient
       id="linearGradient15"><stop
         style="stop-color:#292929;stop-opacity:0.82878411;"
         offset="0"
         id="stop14" /><stop
         style="stop-color:#000000;stop-opacity:0;"
         offset="0.81"
         id="stop15" /></linearGradient><linearGradient
       id="linearGradient5"><stop
         style="stop-color:#ffcb74;stop-opacity:1;"
         offset="0"
         id="stop5" /><stop
         style="stop-color:#feef92;stop-opacity:1;"
         offset="0.40000001"
         id="stop6" /><stop
         style="stop-color:#feef92;stop-opacity:1;"
         offset="0.60000002"
         id="stop8" /><stop
         style="stop-color:#ffcb74;stop-opacity:1;"
         offset="1"
         id="stop7" /></linearGradient><linearGradient
       xlink:href="#linearGradient15"
       id="linearGradient12"
       x1="165.24805"
       y1="203.00653"
       x2="165.09863"
       y2="226.60455"
       gradientUnits="userSpaceOnUse"
       gradientTransform="translate(1020.6457,-29.012553)" /><filter
       style="color-interpolation-filters:sRGB"
       id="filter14"
       x="-0.014411521"
       y="-0.13042264"
       width="1.028823"
       height="1.2608453"><feGaussianBlur
         stdDeviation="0.74464206"
         id="feGaussianBlur14" /></filter><linearGradient
       xlink:href="#linearGradient5"
       id="linearGradient11"
       x1="1019.3268"
       y1="210.8378"
       x2="1349.8268"
       y2="210.8378"
       gradientUnits="userSpaceOnUse"
       gradientTransform="translate(0.07148373,-24.780833)" /></defs><g
     id="layer7"
     style="display:inline"
     transform="translate(-1019.5768,-5.078064)"><path
       style="display:inline;fill:#ffffff;fill-opacity:1;stroke:none;stroke-width:5;stroke-linecap:round;stroke-dasharray:none;stroke-dashoffset:0.3;stroke-opacity:0.976471"
       d="m 1125.755,186.43071 15.5587,11.96909 85.73,-3e-5 15.9034,-11.96906 106.7012,-0.37386 -0.072,279.02121 h -330 l 0.071,-279.02121 z"
       id="path15" /><path
       id="path75-6"
       style="display:inline;fill:url(#linearGradient12);fill-opacity:1;stroke:none;stroke-width:0.5;stroke-linecap:round;stroke-dashoffset:0.3;stroke-opacity:1;filter:url(#filter14)"
       d="m 1143.3757,175.95439 c -3.1931,3.68042 -9.4692,8.935 -20.8028,9.51429 l 5.1856,4.1884 c 8.0739,-0.92844 14.4617,-4.59566 17.2016,-7.75373 l 80.6832,0.074 c 2.6482,2.8965 7.7901,5.99149 15.929,7.52257 l 5.0084,-4.00078 c -10.2698,-1.63335 -15.7638,-6.36195 -18.6738,-9.54475 z" /><path
       id="path16"
       style="display:inline;fill:url(#linearGradient11);stroke:#ffcb74;stroke-width:0.5;stroke-linecap:round;stroke-dashoffset:0.3;stroke-opacity:1"
       d="m 1141.9817,173.71389 c -8.2321,8.30374 -10.9463,8.30374 -24.2255,8.30374 h -98.1079 v 12.71517 l 45.9252,0.0992 6.6894,-8.40132 h 45.258 l 13.3221,8.40132 h 5.8343 l 4.6364,3.5678 85.73,-3e-5 4.4038,-3.56777 h 6.0624 l 12.6435,-8.40129 h 44.3629 l 7.7776,8.40132 47.3544,-0.16726 v -12.50078 l -99.4022,-0.14636 c -11.091,0 -13.5998,0 -21.7699,-8.30374 z m 1.6464,4.18946 h 83.1132 c 2.91,3.18279 5.936,6.89402 16.2058,8.52736 l -6.332,4.45387 h -6.6524 l -5.0867,3.94745 h -81.5528 l -5.2306,-3.94745 h -5.9079 l -6.4297,-4.45387 c 11.1856,-1.54132 14.0881,-4.41308 17.8731,-8.52736 z" /></g></svg>
