<?xml version="1.0" encoding="UTF-8" standalone="no"?>
<!-- Created with Inkscape (http://www.inkscape.org/) -->

<svg
   width="23.786695"
   height="23.082031"
   viewBox="0 0 23.786695 23.082031"
   version="1.1"
   id="graceIcon"
   xml:space="preserve"
   xmlns:inkscape="http://www.inkscape.org/namespaces/inkscape"
   xmlns:sodipodi="http://sodipodi.sourceforge.net/DTD/sodipodi-0.dtd"
   xmlns="http://www.w3.org/2000/svg"
   xmlns:svg="http://www.w3.org/2000/svg"><sodipodi:namedview
     id="namedSpace1"
     pagecolor="#ffffff"
     bordercolor="#111111"
     borderopacity="1"
     inkscape:showpageshadow="0"
     inkscape:pageopacity="0"
     inkscape:pagecheckerboard="1"
     inkscape:deskcolor="#d1d1d1"
     inkscape:document-units="px" /><defs
     id="defs1" /><g
     inkscape:groupmode="layer"
     id="layer2"
     inkscape:label="Layer 2"
     transform="translate(-4.4882812,-4.4472656)"><path
       id="path38"
       style="display:inline;fill:#ffffff;fill-opacity:1;stroke:none;stroke-width:40;stroke-linecap:round;stroke-linejoin:round"
       d="m 28.25,4.4472656 c 0,0 -1.985326,2.3631928 -3.205078,3.2871094 -1.491304,1.1296064 -3.483749,1.4964727 -4.929688,2.683594 -1.048168,0.860549 -2.603515,3.125 -2.603515,3.125 0,0 0.155037,-1.328794 0.439453,-1.921875 0.316607,-0.660208 1.363281,-1.7226565 1.363281,-1.7226565 0,0 -1.573109,0.5200195 -2.083984,1.1210935 -0.530703,0.624404 -0.800781,2.324219 -0.800781,2.324219 0,0 -0.462105,-1.705056 -1.042969,-2.324219 -0.568218,-0.605682 -2.203125,-1.1621091 -2.203125,-1.1621091 0,0 1.016219,0.7637541 1.361328,1.2832031 0.528576,0.795602 1.001953,2.683594 1.001953,2.683594 0,0 -2.230284,-2.719184 -3.646484,-3.726563 C 10.649087,9.2075726 9.0043973,8.9979296 7.734375,8.1347656 6.5073603,7.3008317 4.4882812,5.0898438 4.4882812,5.0898438 c 0,-10e-8 0.3115537,4.3902337 1.4023438,6.2109372 0.9441155,1.575881 4.167969,3.605469 4.167969,3.605469 0,0 -0.6466408,0.09512 -0.9628909,0.04102 -0.638093,-0.10916 -1.8027343,-0.722657 -1.8027343,-0.722657 0,0 1.5034842,2.083188 2.6445312,2.484375 0.808906,0.284408 2.564453,-0.199218 2.564453,-0.199218 0,0 -2.9022382,2.021993 -3.5664061,3.566406 -0.9818446,2.283117 -0.1992188,7.453125 -0.1992188,7.453125 0,0 1.3741989,-2.435746 2.2832029,-3.486328 0.910137,-1.051892 2.329614,-1.62449 3.125,-2.765625 0.590035,-0.846518 1.123047,-2.884766 1.123047,-2.884766 l 1.322266,4.6875 0.880859,-4.326172 c 0,0 1.110205,2.261217 1.923828,3.205078 0.700125,0.812196 1.760851,1.251548 2.484375,2.042969 0.927405,1.014433 2.324219,3.40625 2.324219,3.40625 0,0 0.509813,-5.203352 -0.560547,-7.453125 -0.734716,-1.544287 -3.726562,-3.52539 -3.726562,-3.52539 0,0 2.496659,0.711471 3.605468,0.240234 0.820034,-0.34851 1.722657,-2.044922 1.722657,-2.044922 0,0 -0.914863,0.401172 -1.402344,0.482422 -0.421606,0.07027 -1.28125,0 -1.28125,0 0,0 3.9089,-2.364567 4.927734,-4.289063 C 28.489014,8.9280541 28.25,4.4472656 28.25,4.4472656 Z m -2.925781,5.9316404 c 0,0 -1.120137,2.331079 -2.804688,3.326172 -2.444779,1.444175 -3.80664,0.88086 -3.80664,0.88086 0,-1e-6 0.556894,-1.428588 1.001953,-2.042969 0.437754,-0.604301 1.603515,-1.564453 1.603515,-1.564453 0,0 -0.399714,0.796722 -0.521484,1.123046 -0.156907,0.420479 -0.361328,1.001954 -0.361328,1.001954 0,0 1.720378,-0.675919 2.525391,-1.123047 0.832324,-0.462301 2.363281,-1.601563 2.363281,-1.601563 z M 7.5332031,10.539062 c 0,1e-6 1.7968636,1.038898 2.4453125,1.441407 0.8000884,0.496633 1.8417964,0.882812 1.8417964,0.882812 1e-6,0 -0.0711,-0.457557 -0.160156,-0.841797 -0.07847,-0.338561 -0.359375,-1.242187 -0.359375,-1.242187 0,0 1.209149,1.087331 1.642578,1.763672 0.436298,0.680813 0.921875,2.242187 0.921875,2.242187 0,0 -1.623866,0.220977 -3.767578,-1.121094 -2.1984148,-1.376316 -2.5644529,-3.125 -2.5644529,-3.125 z m 11.1796879,6.771485 c 0,0 2.014678,0.688666 3.085937,2.244141 1.270197,1.844331 1.802734,4.328124 1.802734,4.328124 0,10e-7 -0.919197,-1.18558 -1.603515,-1.884765 -0.623239,-0.636777 -1.943612,-1.440446 -2.404297,-2.203125 -0.865273,-1.432493 -0.880859,-2.484375 -0.880859,-2.484375 z m -4.488282,0.04102 c 0,0 -0.55505,1.52597 -1.041015,2.16211 -0.569038,0.744883 -1.269674,1.167614 -2.083985,2.164062 -0.750115,0.917896 -1.5624996,1.923828 -1.5624996,1.923828 0,1e-6 -0.077161,-2.368678 1.3613286,-3.927734 1.737917,-1.88358 3.326171,-2.322266 3.326171,-2.322266 z" /></g></svg>
