<?xml version="1.0" encoding="UTF-8" standalone="no"?>
<!-- Created with Inkscape (http://www.inkscape.org/) -->

<svg
   width="31.999998"
   height="32"
   viewBox="0 0 31.999999 32"
   version="1.1"
   id="graceIcon"
   xml:space="preserve"
   xmlns:xlink="http://www.w3.org/1999/xlink"
   xmlns="http://www.w3.org/2000/svg"
   xmlns:svg="http://www.w3.org/2000/svg"><defs
     id="defs1"><linearGradient
       id="swatch2"
       gradientTransform="matrix(0.21463748,0,0,0.21463748,521.76247,-128.59581)"><stop
         style="stop-color:#ffffff;stop-opacity:1;"
         offset="0"
         id="stop2" /></linearGradient><linearGradient
       xlink:href="#swatch2"
       id="linearGradient32"
       x1="-824.35638"
       y1="-30.760935"
       x2="-800.5697"
       y2="-30.760935"
       gradientUnits="userSpaceOnUse"
       gradientTransform="matrix(1.3452898,0,0,1.3452898,280.5352,10.621456)" /></defs><g
     id="layer2-6"
     transform="translate(828.46304,46.760927)"><path
       id="path38"
       style="font-variation-settings:normal;display:inline;opacity:1;vector-effect:none;fill:url(#linearGradient32);fill-opacity:1;stroke:none;stroke-width:53.8116;stroke-linecap:round;stroke-linejoin:round;stroke-miterlimit:4;stroke-dasharray:none;stroke-dashoffset:0;stroke-opacity:1;-inkscape-stroke:none;stop-color:#000000;stop-opacity:1"
       d="m -796.49663,-46.286902 c 0,0 -2.67085,3.179189 -4.31176,4.422116 -2.00623,1.519652 -4.68666,2.013185 -6.63186,3.610219 -1.41008,1.157689 -3.50248,4.204031 -3.50248,4.204031 0,0 0.20858,-1.787622 0.59119,-2.585485 0.42593,-0.888175 1.83401,-2.317477 1.83401,-2.317477 0,0 -2.1163,0.699577 -2.80357,1.508204 -0.71394,0.839999 -1.07728,3.12675 -1.07728,3.12675 0,0 -0.62167,-2.293801 -1.40309,-3.12675 -0.76442,-0.814815 -2.96385,-1.563375 -2.96385,-1.563375 0,0 1.36711,1.027465 1.83139,1.726275 0.71108,1.070313 1.34791,3.610221 1.34791,3.610221 0,0 -3.00038,-3.658099 -4.90557,-5.013317 -1.68336,-1.197415 -3.89595,-1.479442 -5.60451,-2.640655 -1.65068,-1.121878 -4.36693,-4.0963 -4.36693,-4.0963 0,0 0.41913,5.90613 1.88656,8.355513 1.27011,2.120015 5.60712,4.850403 5.60712,4.850403 0,0 -0.86992,0.127936 -1.29537,0.05516 -0.85841,-0.146852 -2.42519,-0.972187 -2.42519,-0.972187 0,0 2.02262,2.802495 3.55765,3.342212 1.08823,0.3826 3.44994,-0.268009 3.44994,-0.268009 0,0 -3.90435,2.720162 -4.79785,4.797841 -1.32087,3.071458 -0.268,10.026617 -0.268,10.026617 0,0 1.8487,-3.276786 3.07156,-4.690122 1.2244,-1.415096 3.134,-2.185409 4.20403,-3.720559 0.79378,-1.138815 1.51083,-3.880853 1.51083,-3.880853 l 1.77882,6.306046 1.18502,-5.819951 c 0,0 1.49355,3.041982 2.5881,4.311761 0.94189,1.09263 2.36885,1.683684 3.34222,2.748373 1.24762,1.364715 3.12673,4.582399 3.12673,4.582399 0,0 0.68586,-7.000019 -0.75409,-10.026611 -0.98841,-2.077519 -5.0133,-4.742672 -5.0133,-4.742672 0,0 3.35872,0.957133 4.85039,0.323178 1.10319,-0.468846 2.31747,-2.751009 2.31747,-2.751009 0,0 -1.23075,0.53969 -1.88655,0.648994 -0.56719,0.09458 -1.72365,0 -1.72365,0 0,0 5.25861,-3.181018 6.62922,-5.770027 1.34627,-2.543016 1.02474,-8.570977 1.02474,-8.570977 z m -3.93602,7.979775 c 0,0 -1.50692,3.135978 -3.77312,4.474676 -3.28894,1.942826 -5.12104,1.185011 -5.12104,1.185011 0,-1.2e-5 0.74918,-1.921867 1.34791,-2.748386 0.58892,-0.812959 2.1572,-2.104652 2.1572,-2.104652 0,0 -0.53774,1.071833 -0.70155,1.510828 -0.21108,0.565667 -0.48608,1.347913 -0.48608,1.347913 0,0 2.31439,-0.909309 3.39738,-1.510815 1.11971,-0.621927 3.1793,-2.154575 3.1793,-2.154575 z m -23.93408,0.215462 c 0,0 2.41732,1.397621 3.28964,1.939113 1.07637,0.668112 2.47776,1.187635 2.47776,1.187635 0,0 -0.0957,-0.61555 -0.21545,-1.132464 -0.10566,-0.455462 -0.48346,-1.671106 -0.48346,-1.671106 0,0 1.62665,1.462788 2.20974,2.372661 0.58695,0.915887 1.24018,3.016382 1.24018,3.016382 0,0 -2.18456,0.297282 -5.06846,-1.508191 -2.95752,-1.851549 -3.44995,-4.20403 -3.44995,-4.20403 z m 15.03992,9.109602 c 0,0 2.71034,0.926461 4.15148,3.019032 1.70878,2.481159 2.4252,5.822576 2.4252,5.822576 0,0 -1.23659,-1.594949 -2.15718,-2.535562 -0.83844,-0.856641 -2.61474,-1.937809 -3.23448,-2.963835 -1.16405,-1.927114 -1.18502,-3.342211 -1.18502,-3.342211 z m -6.03803,0.05516 c 0,0 -0.74671,2.052871 -1.40048,2.908664 -0.76551,1.002093 -1.70808,1.570786 -2.80355,2.911301 -1.00914,1.234828 -2.10202,2.588096 -2.10202,2.588096 0,1.2e-5 -0.10383,-3.186548 1.83139,-5.283935 2.33798,-2.533961 4.47466,-3.124126 4.47466,-3.124126 z" /></g></svg>
