<?xml version="1.0" encoding="UTF-8" standalone="no"?>
<!-- Created with Inkscape (http://www.inkscape.org/) -->

<svg
   width="70.367905"
   height="84.909241"
   viewBox="0 0 70.367905 84.90924"
   version="1.1"
   id="svg1"
   xml:space="preserve"
   xmlns="http://www.w3.org/2000/svg"
   xmlns:svg="http://www.w3.org/2000/svg"><defs
     id="defs1" /><g
     id="levelShape"
     style="display:inline"
     transform="translate(0.18193806,-2.8153839)"><path
       style="display:inline;fill:#000000;fill-opacity:1;stroke:#000000;stroke-width:1.015;stroke-linecap:round;stroke-linejoin:miter;stroke-dasharray:none;stroke-dashoffset:0.3;stroke-opacity:1"
       d="m 2.9389397,34.539954 v 18.5 l 2.5,1.5 H 64.93894 l 2.5,-1.5 v -18.5 l -2.5,-2.5 H 5.4389397 Z"
       id="pathL1" /><path
       id="pathL2"
       style="display:inline;fill:#fefefe;fill-opacity:1;stroke:#000000;stroke-width:1;stroke-linecap:round;stroke-linejoin:miter;stroke-dasharray:none;stroke-opacity:1"
       d="M 1.8105005,28.063602 C 12.28702,36.36241 7.2931823,58.456039 0.51569855,59.945893 16.134039,96.392466 55.152341,96.24252 69.515699,59.945893 63.140322,58.201055 57.19985,37.182961 68.457373,28.301136 L 68.339664,14.125101 C 52.319771,14.114624 44.704023,9.4557943 35.133408,3.4188454 26.615031,9.59526 17.076568,14.650794 1.6927912,13.887567 Z" /><path
       id="pathL3"
       style="display:inline;fill:none;fill-opacity:1;stroke:#868686;stroke-width:0.5;stroke-linecap:round;stroke-linejoin:miter;stroke-dasharray:none;stroke-opacity:1"
       d="M 34.708984,8.6035156 C 28.161407,13.05277 20.708569,16.314724 12.827987,17.389881 c -2.351526,0.339532 -4.7257672,0.525574 -7.1014245,0.559338 0.022786,2.77539 0.045573,5.550781 0.068359,8.326172 4.1897117,4.20982 5.9467815,10.286382 6.0247975,16.108694 0.08176,5.845794 -1.147335,11.862121 -4.329485,16.832712 C 6.9649426,60.038026 6.243398,60.79798 5.6445312,61.5 c 3.7300987,7.484386 9.2771238,14.330381 16.7246098,18.349609 3.711177,2.000217 7.871657,3.172052 12.085937,3.353516 0.337999,0.0058 1.105542,0.03262 1.614759,0.0113 4.982161,-0.09832 9.879689,-1.719275 14.062975,-4.39997 0.383726,-0.252475 0.755434,-0.486041 1.225886,-0.821822 C 57.225316,73.875044 61.53242,67.875548 64.525391,61.429688 61.573261,58.524941 60.001892,54.526653 59.022798,50.575396 57.463013,44.019201 57.80668,36.7564 61.15625,30.791016 c 0.900312,-1.560607 1.997527,-3.009858 3.285156,-4.271485 -0.02344,-2.830078 -0.04687,-5.660156 -0.07031,-8.490234 -7.705467,-0.354946 -15.394249,-2.19329 -22.221516,-5.837911 -2.35589,-1.213795 -4.635441,-2.5702795 -6.882,-3.9745891 -0.186198,0.1289062 -0.372396,0.2578125 -0.558594,0.3867187 z" /></g></svg>
