<?xml version="1.0" encoding="UTF-8" standalone="no"?>
<!-- Created with Inkscape (http://www.inkscape.org/) -->

<svg
   width="24.44779"
   height="27.330175"
   viewBox="0 0 24.44779 27.330175"
   version="1.1"
   id="midnightIcon"
   xml:space="preserve"
   xmlns:inkscape="http://www.inkscape.org/namespaces/inkscape"
   xmlns:sodipodi="http://sodipodi.sourceforge.net/DTD/sodipodi-0.dtd"
   xmlns="http://www.w3.org/2000/svg"
   xmlns:svg="http://www.w3.org/2000/svg"><sodipodi:namedview
     id="namedview1"
     pagecolor="#ffffff"
     bordercolor="#111111"
     borderopacity="1"
     inkscape:showpageshadow="0"
     inkscape:pageopacity="0"
     inkscape:pagecheckerboard="1"
     inkscape:deskcolor="#d1d1d1"
     inkscape:document-units="px" /><defs
     id="defs1" /><g
     inkscape:groupmode="layer"
     id="layer2"
     inkscape:label="Layer 2"
     transform="translate(-3.7829242,-2.6502938)"><path
       id="path36"
       style="fill:#ffffff;fill-opacity:1;stroke:none;stroke-width:40;stroke-linecap:round;stroke-linejoin:round"
       d="m 15.904297,2.6503906 c -6.4750042,0.02764 -7.9960389,6.018897 -8.0429689,7.0390625 -0.2478741,5.3882989 2.7871099,6.9921879 2.7871099,6.9921879 0,0 -2.2222526,-3.010199 -0.457032,-6.7187504 0.94954,-1.9948878 3.043065,-3.5120159 5.804688,-3.4726562 2.738839,0.039035 4.467176,0.8271501 5.621094,3.1992187 1.54514,3.1762909 -0.41211,7.0820309 -0.41211,7.0820309 0,0 2.854471,-2.44658 2.925781,-6.9921871 0.02927,-1.8657663 -2.09731,-7.1550702 -8.226562,-7.1289063 z m 9.414062,5.1640625 c 0,0 1.444885,5.4447519 -0.822265,9.0957029 -1.699258,2.736432 -5.896485,4.478516 -5.896485,4.478516 l -2.742187,-10.09961 -2.878906,10.373047 c 0,0 -2.9794604,-0.913191 -5.2089848,-3.701171 C 5.3556037,14.942364 6.1699219,7.9980469 6.1699219,7.9980469 c 0,0 -2.1337757,5.4624851 0.8222656,11.2871091 1.1404676,2.247193 5.8046875,4.845703 5.8046875,4.845703 0,0 -3.142673,-0.20033 -5.6210938,-3.107421 C 3.9051371,17.187099 3.9296875,11.013672 3.9296875,11.013672 c 0,0 -0.965575,6.444175 2.0566406,11.425781 2.9409595,4.847669 7.9531249,4.433594 7.9531249,4.433594 l 2.009766,3.107422 1.736328,-3.154297 c 0,0 5.597521,0.0074 9.095703,-5.345703 2.719951,-4.162244 0.777344,-10.101563 0.777344,-10.101563 0,0 0.928428,4.952064 -2.148438,8.638672 -2.463712,2.951947 -6.261718,4.021484 -6.261718,4.021484 -10e-7,0 4.878374,-3.603716 6.261718,-5.986328 2.664455,-4.58913 -0.0918,-10.2382809 -0.0918,-10.2382809 z m -9.414062,9.4140629 2.056641,7.724609 -2.011719,1.873047 -1.964844,-1.78125 z" /></g></svg>
