<?xml version="1.0" encoding="UTF-8" standalone="no"?>
<!-- Created with Inkscape (http://www.inkscape.org/) -->

<svg
   width="31.999998"
   height="32"
   viewBox="0 0 31.999999 32"
   version="1.1"
   id="midnightIcon"
   xml:space="preserve"
   xmlns:xlink="http://www.w3.org/1999/xlink"
   xmlns="http://www.w3.org/2000/svg"
   xmlns:svg="http://www.w3.org/2000/svg"><defs
     id="defs1"><linearGradient
       id="swatch2"
       gradientTransform="matrix(0.21463748,0,0,0.21463748,521.76247,-128.59581)"><stop
         style="stop-color:#ffffff;stop-opacity:1;"
         offset="0"
         id="stop2" /></linearGradient><linearGradient
       xlink:href="#swatch2"
       id="linearGradient36"
       x1="-785.51337"
       y1="-30.760933"
       x2="-761.06561"
       y2="-30.760933"
       gradientUnits="userSpaceOnUse"
       gradientTransform="matrix(1.1708776,0,0,1.1708776,132.13789,5.2563915)" /></defs><g
     id="layer2-6"
     transform="translate(789.28945,46.760927)"><path
       id="path36"
       style="font-variation-settings:normal;display:inline;opacity:1;vector-effect:none;fill:url(#linearGradient36);fill-opacity:1;stroke:none;stroke-width:46.8351;stroke-linecap:round;stroke-linejoin:round;stroke-miterlimit:4;stroke-dasharray:none;stroke-dashoffset:0;stroke-opacity:1;-inkscape-stroke:none;stop-color:#000000;stop-opacity:1"
       d="m -773.40949,-46.760925 c -7.58144,0.03232 -9.36238,7.047384 -9.41732,8.241878 -0.29024,6.30904 3.26336,8.186998 3.26336,8.186998 0,0 -2.602,-3.524574 -0.53513,-7.866834 1.11179,-2.335771 3.56305,-4.112145 6.79656,-4.066059 3.20685,0.04566 5.23053,0.968492 6.58163,3.745895 1.80917,3.719047 -0.48253,8.29219 -0.48253,8.29219 0,0 3.34224,-2.864645 3.42573,-8.186998 0.0343,-2.184577 -2.45569,-8.377712 -9.6323,-8.34707 z m 11.02272,6.046482 c 0,0 1.69177,6.375137 -0.96278,10.649952 -1.98962,3.204036 -6.90406,5.243799 -6.90406,5.243799 l -3.21076,-11.825407 -3.37085,12.145572 c 0,0 -3.48859,-1.069235 -6.09908,-4.333617 -2.82642,-3.534388 -1.87295,-11.665337 -1.87295,-11.665337 0,0 -2.49838,6.395907 0.96277,13.215825 1.33534,2.631196 6.79657,5.673733 6.79657,5.673733 0,0 -3.67968,-0.234562 -6.5816,-3.638408 -3.82953,-4.491885 -3.80078,-11.720217 -3.80078,-11.720217 0,0 -1.13057,7.545335 2.40808,13.378191 3.44349,5.676023 9.31212,5.191192 9.31212,5.191192 l 2.3532,3.638411 2.03303,-3.693296 c 0,0 6.55402,0.0086 10.64995,-6.259156 3.18473,-4.873485 0.91018,-11.827701 0.91018,-11.827701 0,0 1.08707,5.798267 -2.51556,10.114837 -2.88471,3.45636 -7.33171,4.708661 -7.33171,4.708661 0,0 5.71198,-4.219516 7.33171,-7.00926 3.11975,-5.37331 -0.10744,-11.987774 -0.10744,-11.987774 z m -11.02272,11.022713 2.40808,9.044573 -2.35547,2.193107 -2.3006,-2.085621 z" /></g></svg>
