<?xml version="1.0" encoding="UTF-8" standalone="no"?>
<!-- Created with Inkscape (http://www.inkscape.org/) -->

<svg
   width="70"
   height="68.400818"
   viewBox="0 0 70 68.400817"
   version="1.1"
   id="svg1"
   inkscape:export-filename="abilityShape.svg"
   inkscape:export-xdpi="96"
   inkscape:export-ydpi="96"
   xml:space="preserve"
   inkscape:version="1.3 (0e150ed6c4, 2023-07-21)"
   sodipodi:docname="numShapes.svg"
   xmlns:inkscape="http://www.inkscape.org/namespaces/inkscape"
   xmlns:sodipodi="http://sodipodi.sourceforge.net/DTD/sodipodi-0.dtd"
   xmlns="http://www.w3.org/2000/svg"
   xmlns:svg="http://www.w3.org/2000/svg"><sodipodi:namedview
     id="namedview1"
     pagecolor="#ffffff"
     bordercolor="#111111"
     borderopacity="1"
     inkscape:showpageshadow="0"
     inkscape:pageopacity="0"
     inkscape:pagecheckerboard="1"
     inkscape:deskcolor="#d1d1d1"
     inkscape:document-units="px"
     showguides="true"
     inkscape:zoom="9.2226847"
     inkscape:cx="38.329403"
     inkscape:cy="26.185434"
     inkscape:window-width="1920"
     inkscape:window-height="991"
     inkscape:window-x="-9"
     inkscape:window-y="675"
     inkscape:window-maximized="1"
     inkscape:current-layer="abilityShape" /><defs
     id="defs1" /><g
     inkscape:label="abilityShape"
     inkscape:groupmode="layer"
     id="abilityShape"
     transform="translate(-24.5,-24.599609)"
     style="display:inline"><path
       style="fill:#000000;fill-opacity:1;stroke:#000000;stroke-width:1;stroke-linecap:round;stroke-linejoin:miter;stroke-dasharray:none;stroke-dashoffset:0.3;stroke-opacity:1"
       d="m 26.5,54.599609 v 6 l 3,3 h 60 l 3,-3 v -6 z"
       id="pathAb1"
       sodipodi:nodetypes="ccccccc"
       inkscape:label="Black Shape" /><path
       id="pathAb2"
       style="display:inline;fill:#ffffff;fill-opacity:1;stroke:#000000;stroke-width:1;stroke-linecap:round;stroke-linejoin:miter;stroke-dasharray:none;stroke-opacity:1"
       d="m 25,27.099609 c 0,8.588542 0,17.177084 0,25.765625 1.477797,1.523484 2.957119,3.045488 4.435547,4.56836 0,7.615234 0,15.230469 0,22.845703 C 39.456907,84.340151 49.478544,88.40032 59.5,92.460938 69.521456,88.40032 79.543093,84.340151 89.564453,80.279297 c 0,-7.615234 0,-15.230469 0,-22.845703 1.478432,-1.522868 2.957744,-3.044882 4.435547,-4.56836 0,-9.255208 0,-18.510416 0,-27.765625 -23,0 -46,0 -69,0 0,0.666667 0,1.333334 0,2 z"
       inkscape:label="Main Area" /><path
       id="pathAb3"
       style="display:inline;fill:#ffffff;fill-opacity:1;stroke:#838383;stroke-width:0.5;stroke-linecap:round;stroke-linejoin:miter;stroke-dasharray:none;stroke-opacity:1"
       d="m 29,29.1 v 22.144141 c 1.478432,1.522867 2.957743,3.044881 4.435547,4.568359 V 77.583984 L 59.5,88.144531 85.564453,77.583984 V 55.8125 C 87.04225,54.289016 88.521572,52.767012 90,51.244141 V 29.1"
       sodipodi:nodetypes="ccccccccc"
       inkscape:label="Grey Inset" /></g><g
     inkscape:groupmode="layer"
     id="levelShape"
     inkscape:label="levelShape"
     style="display:none"
     transform="translate(-0.0020157,-11.069595)"><path
       style="display:inline;fill:#000000;fill-opacity:1;stroke:#000000;stroke-width:1.015;stroke-linecap:round;stroke-linejoin:miter;stroke-dasharray:none;stroke-dashoffset:0.3;stroke-opacity:1"
       d="m 2.9389397,34.539954 v 18.5 l 2.5,1.5 H 64.93894 l 2.5,-1.5 v -18.5 l -2.5,-2.5 H 5.4389397 Z"
       id="pathL1"
       sodipodi:nodetypes="ccccccccc"
       inkscape:label="Black Shape" /><path
       id="pathL2"
       style="display:inline;fill:#fefefe;fill-opacity:1;stroke:#000000;stroke-width:1;stroke-linecap:round;stroke-linejoin:miter;stroke-dasharray:none;stroke-opacity:1"
       d="M 1.8105005,28.063602 C 12.28702,36.36241 7.2931823,58.456039 0.51569855,59.945893 16.134039,96.392466 55.152341,96.24252 69.515699,59.945893 63.140322,58.201055 57.19985,37.182961 68.457373,28.301136 L 68.339664,14.125101 C 52.319771,14.114624 44.704023,9.4557943 35.133408,3.4188454 26.615031,9.59526 17.076568,14.650794 1.6927912,13.887567 Z"
       inkscape:label="Main Area"
       sodipodi:nodetypes="cccccccc" /><path
       id="pathL3"
       style="display:inline;fill:none;fill-opacity:1;stroke:#868686;stroke-width:0.5;stroke-linecap:round;stroke-linejoin:miter;stroke-dasharray:none;stroke-opacity:1"
       inkscape:label="Grey Inset"
       d="M 34.708984,8.6035156 C 28.161407,13.05277 20.708569,16.314724 12.827987,17.389881 c -2.351526,0.339532 -4.7257672,0.525574 -7.1014245,0.559338 0.022786,2.77539 0.045573,5.550781 0.068359,8.326172 4.1897117,4.20982 5.9467815,10.286382 6.0247975,16.108694 0.08176,5.845794 -1.147335,11.862121 -4.329485,16.832712 C 6.9649426,60.038026 6.243398,60.79798 5.6445312,61.5 c 3.7300987,7.484386 9.2771238,14.330381 16.7246098,18.349609 3.711177,2.000217 7.871657,3.172052 12.085937,3.353516 0.337999,0.0058 1.105542,0.03262 1.614759,0.0113 4.982161,-0.09832 9.879689,-1.719275 14.062975,-4.39997 0.383726,-0.252475 0.755434,-0.486041 1.225886,-0.821822 C 57.225316,73.875044 61.53242,67.875548 64.525391,61.429688 61.573261,58.524941 60.001892,54.526653 59.022798,50.575396 57.463013,44.019201 57.80668,36.7564 61.15625,30.791016 c 0.900312,-1.560607 1.997527,-3.009858 3.285156,-4.271485 -0.02344,-2.830078 -0.04687,-5.660156 -0.07031,-8.490234 -7.705467,-0.354946 -15.394249,-2.19329 -22.221516,-5.837911 -2.35589,-1.213795 -4.635441,-2.5702795 -6.882,-3.9745891 -0.186198,0.1289062 -0.372396,0.2578125 -0.558594,0.3867187 z" /></g><g
     inkscape:groupmode="layer"
     id="armorShape"
     inkscape:label="armorShape"
     style="display:none"
     transform="translate(-3.4999999,-8.9793124)"><path
       style="display:inline;fill:#000000;fill-opacity:1;stroke:#000000;stroke-width:1.015;stroke-linecap:round;stroke-linejoin:miter;stroke-dasharray:none;stroke-dashoffset:0.3;stroke-opacity:1"
       d="M 0.5,40 5,58 12.5,61 H 65 L 72,58 76.5,40 74,35 H 3 Z"
       id="pathAr1"
       sodipodi:nodetypes="ccccccccc"
       inkscape:label="Black Shape" /><path
       id="pathAr2"
       style="display:inline;fill:#ffffff;fill-opacity:1;stroke:#000000;stroke-width:1;stroke-linecap:round;stroke-linejoin:miter;stroke-dasharray:none;stroke-opacity:1"
       d="m 1.5285671,27.290377 c 3.8059195,23.840645 15.9912749,52.528684 36.9999999,57.5 24.058235,-5.662816 34.077779,-35.637027 36.5,-57.5 l -18,-25.5000001 c -12.251219,10.4029901 -25.249169,9.8424231 -37,0 z"
       inkscape:label="Main Area"
       sodipodi:nodetypes="cccccc" /><path
       id="pathAr3"
       style="display:inline;fill:none;fill-opacity:1;stroke:#777777;stroke-width:0.5;stroke-linecap:round;stroke-linejoin:miter;stroke-dasharray:none;stroke-opacity:1"
       inkscape:label="Grey Inset"
       d="m 5.7558594,28.21875 c 1.9117032,10.817335 5.2169766,21.454366 10.3666526,31.182047 3.247207,6.002236 7.285464,11.721251 12.628701,16.038919 2.894926,2.315998 6.200347,4.177957 9.789803,5.15794 6.750526,-1.759463 12.577973,-6.118542 16.93464,-11.478232 5.748955,-7.065718 9.414212,-15.584578 11.98736,-24.258872 0.65736,-2.223052 1.260812,-4.672702 1.732296,-6.811724 C 69.895067,34.81421 70.446924,31.54897 70.875,28.267578 65.947644,21.342244 61.067428,14.380676 56.158203,7.4414062 51.719424,10.547947 47.22165,12.4485 41.077843,13.215144 L 38.5,11.783935 35.939751,13.195844 C 30.510069,12.654689 25.331231,10.477835 20.865234,7.390624 Z"
       sodipodi:nodetypes="cccccccccccccc" /></g><g
     inkscape:groupmode="layer"
     id="evasionShape"
     inkscape:label="evasionShape"
     transform="translate(-3.4999999,-7.9080047)"
     style="display:none"><path
       style="display:inline;fill:#000000;fill-opacity:1;stroke:#000000;stroke-width:1.015;stroke-linecap:round;stroke-linejoin:miter;stroke-dasharray:none;stroke-dashoffset:0.3;stroke-opacity:1"
       d="m 4,31 v 9 H 72.9 V 31 L 68.5,25.5 H 9 Z"
       id="pathE1"
       sodipodi:nodetypes="ccccccc"
       inkscape:label="Black Shape" /><path
       id="pathE2"
       style="display:inline;fill:#ffffff;fill-opacity:1;stroke:#000000;stroke-width:1;stroke-linecap:round;stroke-linejoin:miter;stroke-dasharray:none;stroke-opacity:1"
       d="m 8,36 -5,4 v 25 l 13,5 12.5,13 h 20 L 61,70 74,65 V 40 L 69,36 C 72.456008,-9.6460248 6.8836562,-11.103382 8,36 Z"
       inkscape:label="Main Area"
       sodipodi:nodetypes="ccccccccccc" /><path
       id="pathE3"
       style="display:inline;fill:none;fill-opacity:1;stroke:#6f6f6f;stroke-width:0.5;stroke-linecap:round;stroke-linejoin:miter;stroke-dasharray:none;stroke-opacity:1"
       inkscape:label="Grey Inset"
       d="M 38.023438,5.234375 C 36.653146,5.2678632 35.012402,5.4593509 33.841335,5.6872751 27.018157,6.934994 20.657574,10.907693 16.873347,16.767791 c -3.1551,4.770947 -4.617541,10.494123 -4.842097,16.167756 -0.02233,0.49492 -0.04052,1.346569 -0.04297,1.978515 -0.0035,0.994341 0.02545,1.98829 0.04102,2.982422 C 10.353447,39.239659 8.6763794,40.581314 7,41.923828 7,48.699219 7,55.474609 7,62.25 c 3.755117,1.445548 7.510967,2.889198 11.265625,4.335938 3.979781,4.137429 7.958232,8.276139 11.9375,12.414062 5.53125,0 11.0625,0 16.59375,0 3.979268,-4.137923 7.957719,-8.276633 11.9375,-12.414062 C 62.489034,65.139201 66.244882,63.695546 70,62.25 70,55.474609 70,48.699219 70,41.923828 68.287005,40.552865 66.575396,39.180168 64.861328,37.810547 65.490303,31.638494 65.127184,25.160712 62.419987,19.482598 59.757756,13.618661 54.572567,9.0671293 48.544982,6.8856765 45.192395,5.6554141 41.58898,5.1214504 38.023438,5.234375 Z" /></g></svg>
