<?xml version="1.0" encoding="UTF-8" standalone="no"?>
<!-- Created with Inkscape (http://www.inkscape.org/) -->

<svg
   width="23.680513"
   height="24.917772"
   viewBox="0 0 23.680513 24.917772"
   version="1.1"
   id="sageIcon"
   xml:space="preserve"
   xmlns:inkscape="http://www.inkscape.org/namespaces/inkscape"
   xmlns:sodipodi="http://sodipodi.sourceforge.net/DTD/sodipodi-0.dtd"
   xmlns="http://www.w3.org/2000/svg"
   xmlns:svg="http://www.w3.org/2000/svg"><sodipodi:namedview
     id="namedview1"
     pagecolor="#ffffff"
     bordercolor="#111111"
     borderopacity="1"
     inkscape:showpageshadow="0"
     inkscape:pageopacity="0"
     inkscape:pagecheckerboard="1"
     inkscape:deskcolor="#d1d1d1"
     inkscape:document-units="px" /><defs
     id="defs1" /><g
     inkscape:groupmode="layer"
     id="layer2"
     inkscape:label="Layer 2"
     transform="translate(-5.303781,-3.8352592)"><path
       style="fill:#ffffff;fill-opacity:1;stroke:none;stroke-width:40;stroke-linecap:round;stroke-linejoin:round"
       d="m 22.203361,8.1676649 c 0,0 -1.108949,-6.1307 -9.317482,-3.8062905 -3.6978791,1.0471281 -3.9252369,6.5024126 -3.9252369,6.5024126 0,0 -2.0833858,0.570388 -2.815069,-0.634381 -0.6851404,-1.1281329 0.4361375,-3.0529626 0.4361375,-3.0529626 0,0 -2.0569242,1.92113 -0.9515727,4.2820766 0.841298,1.796949 4.0045348,0.832626 4.0045348,0.832626 0,0 0.5963383,1.649324 1.1894653,2.259985 0.824638,0.849015 3.092611,1.74455 3.092611,1.74455 l -2.141038,-2.378932 c 0,0 3.906284,2.606206 4.004535,4.638917 0.101344,2.096688 0.41418,3.752441 -2.616825,4.51997 -2.47935,0.627835 -3.4890995,-1.38771 -3.4890995,-1.38771 0,0 -0.4724544,-1.155327 1.6256035,-1.665252 1.52019,-0.369476 2.616824,0.753328 2.616824,0.753328 0,0 -0.476038,-2.116539 -2.854717,-2.141038 -1.9666686,-0.02026 -2.7357717,2.934015 -2.7357717,2.934015 0,0 -0.881382,-0.506536 -1.2687634,-2.41858 -0.3199616,-1.579272 -1e-7,-4.083833 -1e-7,-4.083833 0,0 -2.519814,4.713893 0.6740307,8.246963 2.7401605,3.031199 6.8196035,1.942794 6.8196035,1.942794 0,0 0.542387,1.546045 0.198244,2.378932 -0.377582,0.913817 -2.934015,0.436137 -2.934015,0.436137 0,0 3.053229,1.914739 4.51997,-0.674031 0.730136,-1.288675 -0.277542,-2.934015 -0.277542,-2.934015 0,0 1.33034,-0.791712 2.141039,-2.973664 0.465269,-1.25225 0.31719,-4.083833 0.31719,-4.083833 l -1.665252,2.77542 2.537527,-5.669787 c 0,0 3.224649,-1.293047 5.233649,0.634382 0.983461,0.943529 2.260115,2.255864 1.38771,3.845939 -0.517973,0.944075 -1.368751,1.310676 -2.854717,0.118947 -1.617698,-1.297376 -0.832627,-3.211558 -0.832627,-3.211558 0,0 -1.997649,1.221349 -0.0793,4.440673 0.797844,1.338918 3.211557,0.911923 3.211557,0.911923 0,0 -0.715841,1.191613 -2.41858,2.378932 -1.625544,1.133491 -3.647695,1.070519 -3.647695,1.070519 0,0 7.444367,1.576561 8.207314,-6.93855 0.316097,-3.527907 -3.171909,-5.511192 -3.171909,-5.511192 0,0 0.189668,-2.204574 2.141038,-2.022091 2.381022,0.222663 2.220336,2.735771 2.220336,2.735771 0,0 1.165393,-3.4631121 -2.141038,-4.0441838 -3.179802,-0.5588179 -3.647695,2.7357708 -3.647695,2.7357708 0,0 -2.286949,-0.431156 -3.409802,-0.237893 -0.993529,0.171004 -2.854718,1.665252 -2.854718,1.665252 l 2.696123,0.237894 c 0,0 -4.469126,1.054543 -5.630138,-0.03965 -0.643231,-0.606212 -2.711892,-2.156997 -2.061741,-5.4715428 0.203126,-1.0355606 1.164873,-2.493456 2.497879,-2.0617407 1.361199,0.4408464 1.361834,0.440588 1.387709,2.3392827 0.02082,1.5280804 -2.537527,1.665252 -2.537527,1.665252 0,0 2.522249,1.4106288 3.885589,-1.2687635 1.071572,-2.1059752 -0.317192,-3.5287484 -0.317192,-3.5287484 0,0 2.194173,0.2999127 3.013313,0.872275 1.214883,0.8488815 2.537528,2.3392836 2.537528,2.3392836 z"
       id="path35"
       sodipodi:nodetypes="cscscscsccsscscscscscscscscccssscscscscscscsccsssscscscc" /></g></svg>
