<?xml version="1.0" encoding="UTF-8" standalone="no"?>
<!-- Created with Inkscape (http://www.inkscape.org/) -->

<svg
   width="31.999998"
   height="32"
   viewBox="0 0 31.999999 32"
   version="1.1"
   id="sageIcon"
   xml:space="preserve"
   xmlns:xlink="http://www.w3.org/1999/xlink"
   xmlns="http://www.w3.org/2000/svg"
   xmlns:svg="http://www.w3.org/2000/svg"><defs
     id="defs1"><linearGradient
       id="swatch2"
       gradientTransform="matrix(0.21463748,0,0,0.21463748,521.76247,-128.59581)"><stop
         style="stop-color:#ffffff;stop-opacity:1;"
         offset="0"
         id="stop2" /></linearGradient><linearGradient
       xlink:href="#swatch2"
       id="linearGradient38"
       x1="-744.13446"
       y1="-30.760937"
       x2="-720.45392"
       y2="-30.760937"
       gradientUnits="userSpaceOnUse"
       gradientTransform="matrix(1.2842236,0,0,1.2842236,208.13536,8.7429919)" /></defs><g
     id="layer2-6"
     transform="translate(748.29422,46.760927)"><path
       style="font-variation-settings:normal;display:inline;opacity:1;vector-effect:none;fill:url(#linearGradient38);fill-opacity:1;stroke:none;stroke-width:51.369;stroke-linecap:round;stroke-linejoin:round;stroke-miterlimit:4;stroke-dasharray:none;stroke-dashoffset:0;stroke-opacity:1;-inkscape-stroke:none;stop-color:#000000;stop-opacity:1"
       d="m -725.7969,-41.197155 c 0,0 -1.42413,-7.87319 -11.96572,-4.888128 -4.74891,1.344749 -5.04089,8.350548 -5.04089,8.350548 0,0 -2.67553,0.732509 -3.61517,-0.814685 -0.87988,-1.448772 0.56009,-3.920683 0.56009,-3.920683 0,0 -2.64154,2.467173 -1.22203,5.499148 1.08042,2.307686 5.14271,1.069271 5.14271,1.069271 0,0 0.76584,2.118121 1.52755,2.902332 1.05903,1.090332 3.97161,2.240406 3.97161,2.240406 l -2.74958,-3.055079 c 0,0 5.01654,3.346944 5.14272,5.957386 0.13014,2.692618 0.53191,4.818971 -3.36059,5.804665 -3.18405,0.806287 -4.48078,-1.782131 -4.48078,-1.782131 0,0 -0.60673,-1.483702 2.08762,-2.138553 1.95227,-0.474495 3.36061,0.967444 3.36061,0.967444 0,0 -0.61136,-2.71811 -3.6661,-2.749574 -2.52565,-0.02608 -3.51334,3.767937 -3.51334,3.767937 0,0 -1.13189,-0.650509 -1.62938,-3.105997 -0.41092,-2.028149 0,-5.244564 0,-5.244564 0,0 -3.236,6.053702 0.86561,10.590955 3.51897,3.892726 8.75789,2.494976 8.75789,2.494976 0,0 0.69655,1.985462 0.25458,3.055075 -0.48489,1.173546 -3.76793,0.560097 -3.76793,0.560097 0,0 3.92105,2.458954 5.80466,-0.865605 0.93767,-1.654945 -0.35643,-3.76793 -0.35643,-3.76793 0,0 1.70846,-1.016733 2.74958,-3.818845 0.59751,-1.608169 0.40734,-5.24455 0.40734,-5.24455 l -2.13855,3.564259 3.25875,-7.281278 c 0,0 4.14117,-1.660566 6.72117,0.814685 1.26298,1.211704 2.9025,2.897042 1.78213,4.939047 -0.66519,1.21241 -1.75778,1.683207 -3.6661,0.152759 -2.07747,-1.666126 -1.06926,-4.124362 -1.06926,-4.124362 0,0 -2.56543,1.568486 -0.10187,5.7028 1.02461,1.719486 4.12435,1.171124 4.12435,1.171124 0,0 -0.91929,1.530293 -3.10599,3.055077 -2.08756,1.455656 -4.68445,1.374788 -4.68445,1.374788 0,0 9.56023,2.024656 10.54001,-8.910651 0.40594,-4.530625 -4.07343,-7.077614 -4.07343,-7.077614 0,0 0.24357,-2.831161 2.74958,-2.596815 3.05775,0.285958 2.8514,3.513341 2.8514,3.513341 0,0 1.49662,-4.447408 -2.74958,-5.193633 -4.08356,-0.717649 -4.68446,3.513341 -4.68446,3.513341 0,0 -2.93694,-0.553692 -4.37894,-0.305503 -1.27591,0.219615 -3.6661,2.138553 -3.6661,2.138553 l 3.46243,0.305503 c 0,0 -5.73937,1.35428 -7.23035,-0.05098 -0.82606,-0.77851 -3.48268,-2.770059 -2.64774,-7.026682 0.26085,-1.329891 1.49595,-3.202148 3.20783,-2.647735 1.74809,0.566151 1.74889,0.565816 1.78214,3.004158 0.0268,1.962397 -3.25876,2.138567 -3.25876,2.138567 0,0 3.23913,1.811552 4.98997,-1.629384 1.37613,-2.704537 -0.40735,-4.531704 -0.40735,-4.531704 0,0 2.81781,0.385163 3.86977,1.120201 1.56018,1.090152 3.25875,3.00416 3.25875,3.00416 z"
       id="path35" /></g></svg>
