<?xml version="1.0" encoding="UTF-8" standalone="no"?>
<!-- Created with Inkscape (http://www.inkscape.org/) -->

<svg
   width="27.369141"
   height="24.847656"
   viewBox="0 0 27.369141 24.847656"
   version="1.1"
   id="splendorIcon"
   xml:space="preserve"
   xmlns:inkscape="http://www.inkscape.org/namespaces/inkscape"
   xmlns:sodipodi="http://sodipodi.sourceforge.net/DTD/sodipodi-0.dtd"
   xmlns="http://www.w3.org/2000/svg"
   xmlns:svg="http://www.w3.org/2000/svg"><sodipodi:namedview
     id="namedview1"
     pagecolor="#ffffff"
     bordercolor="#111111"
     borderopacity="1"
     inkscape:showpageshadow="0"
     inkscape:pageopacity="0"
     inkscape:pagecheckerboard="1"
     inkscape:deskcolor="#d1d1d1"
     inkscape:document-units="px" /><defs
     id="defs1" /><g
     inkscape:groupmode="layer"
     id="layer2"
     inkscape:label="Layer 2"
     transform="translate(-2.4003906,-4.4335937)"><path
       id="path22"
       style="display:inline;fill:#ffffff;fill-opacity:1;stroke:none;stroke-width:40;stroke-linecap:round;stroke-linejoin:round"
       d="m 11.021484,4.4335938 c 0,0 -0.15966,5.0394644 5.042969,5.1230468 4.909998,0.078881 4.960938,-5.0019531 4.960938,-5.0019531 z m -6.3046871,0.039062 c 0,0 -0.055913,1.8079766 0.1230469,2.6855469 C 5.0104065,7.9945993 5.734375,9.5566406 5.734375,9.5566406 L 2.4003906,13.419922 6.8320312,11.103516 c 10e-8,0 0.4760293,0.989607 0.8144532,1.421875 0.3783689,0.483284 1.3417969,1.302734 1.3417968,1.302734 l -2.0742187,5.773437 3.9042965,-4.716796 c 0,0 0.90688,0.63266 1.503907,0.853515 0.524215,0.193922 1.830078,0.408203 1.830078,0.408203 l 1.871094,13.134766 1.748046,-13.134766 c 0,0 1.375931,-0.354031 2.035157,-0.611328 0.519606,-0.202805 1.503906,-0.732422 1.503906,-0.732422 l 4.025391,5.083985 -2.277344,-6.09961 c 0,0 1.057606,-0.841021 1.505859,-1.341797 0.421472,-0.470844 1.097656,-1.546875 1.097656,-1.546874 l 4.107422,2.318359 -3.294922,-3.4570314 c 0,0 0.51068,-1.5332492 0.611329,-2.2363281 0.144277,-1.0078851 0.04102,-2.8867187 0.04102,-2.8867187 l -5.166015,-0.041016 c 0,0 0.104415,2.142277 -1.220704,3.7421875 -1.875124,2.2639767 -3.537109,2.1132817 -3.537109,2.1132817 l -1.220703,7.849609 -1.259766,-7.929687 c 0,0 -1.654827,0.04391 -3.457031,-2.2773443 C 9.7990508,6.2047906 10.044922,4.5546875 10.044922,4.5546875 Z M 5.734375,5.328125 8.6621094,5.4492188 c -4e-7,0 0.054098,0.5518912 0.1230468,0.8144531 0.069292,0.2638681 0.1621094,0.7714843 0.1621094,0.7714843 l -2.4804687,1.75 c 0,0 -0.4720279,-0.7996265 -0.6503907,-1.7089843 C 5.6357774,6.1552622 5.734375,5.328125 5.734375,5.328125 Z m 17.447266,0.2441406 h 2.845703 c 0,0 0.169217,1.1437325 0.08203,1.7070313 -0.0597,0.3857223 -0.691406,1.6679687 -0.691406,1.6679687 L 23.140625,6.8320312 Z m -13.054688,3.2929688 0.964844,1.046875 -1.4941408,2.8574216 c 0,0 -1.0637694,-0.698462 -1.3417968,-1.015625 -0.337805,-0.385353 -0.6503906,-1.302734 -0.6503906,-1.302734 z m 11.792969,0 2.5625,1.5859376 c 0,0 -0.420699,1.050824 -0.650391,1.34375 -0.355085,0.45284 -1.300781,1.056641 -1.300781,1.05664 L 21.177734,9.6933594 Z m -8.783203,2.3183596 0.914062,0.240234 0.101563,3.419922 c 0,0 -1.01277,0.07181 -1.462891,-0.121094 -0.450119,-0.192909 -1.179687,-0.976562 -1.179687,-0.976562 z m 5.773437,0.08203 1.708985,2.806641 c 0,0 -0.751755,0.39268 -1.179688,0.609375 -0.443539,0.224594 -1.462891,0.285156 -1.462891,0.285156 l 0.0918,-3.537109 z M 7.1992188,13.136719 5.9375,13.298828 3.6191406,16.714844 7.1582031,14.275391 Z m 17.8535152,0.283203 0.283204,1.179687 2.685546,1.91211 -1.585937,-2.765625 z m -13.054687,3.335937 -1.138672,1.056641 -0.408203,4.392578 2.15625,-3.986328 z m 7.970703,0.04102 -0.529297,1.666016 2.236328,3.621093 -0.488281,-4.107422 z" /></g></svg>
