<?xml version="1.0" encoding="UTF-8" standalone="no"?>
<!-- Created with Inkscape (http://www.inkscape.org/) -->

<svg
   width="31.999998"
   height="32"
   viewBox="0 0 31.999999 32"
   version="1.1"
   id="splendorIcon"
   xml:space="preserve"
   xmlns:xlink="http://www.w3.org/1999/xlink"
   xmlns="http://www.w3.org/2000/svg"
   xmlns:svg="http://www.w3.org/2000/svg"><defs
     id="defs1"><linearGradient
       id="swatch2"
       gradientTransform="matrix(0.21463748,0,0,0.21463748,521.76247,-128.59581)"><stop
         style="stop-color:#ffffff;stop-opacity:1;"
         offset="0"
         id="stop2" /></linearGradient><linearGradient
       xlink:href="#swatch2"
       id="linearGradient40"
       x1="-703.26135"
       y1="-30.760933"
       x2="-675.89221"
       y2="-30.760933"
       gradientUnits="userSpaceOnUse"
       gradientTransform="matrix(1.1692,0,0,1.1692,116.67643,5.2047514)" /></defs><g
     id="layer2-6"
     transform="translate(705.57682,46.760927)"><path
       id="path22"
       style="font-variation-settings:normal;display:inline;opacity:1;vector-effect:none;fill:url(#linearGradient40);fill-opacity:1;stroke:none;stroke-width:46.768;stroke-linecap:round;stroke-linejoin:round;stroke-miterlimit:4;stroke-dasharray:none;stroke-dashoffset:0;stroke-opacity:1;-inkscape-stroke:none;stop-color:#000000;stop-opacity:1"
       d="m -695.49703,-45.286897 c 0,0 -0.18666,5.892148 5.89625,5.98987 5.74078,0.09224 5.80034,-5.848292 5.80034,-5.848292 z m -7.37142,0.04572 c 0,0 -0.0653,2.11389 0.14386,3.139946 0.19943,0.977918 1.04587,2.804256 1.04587,2.804256 l -3.89808,4.516946 5.18148,-2.708346 c 0,0 0.55657,1.157052 0.95225,1.662462 0.44239,0.565052 1.56884,1.523152 1.56884,1.523152 l -2.42518,6.750306 4.5649,-5.514882 c 0,0 1.06032,0.739706 1.75837,0.997936 0.61291,0.22673 2.13973,0.477266 2.13973,0.477266 l 2.18768,15.357171 2.0438,-15.357171 c 0,0 1.60875,-0.413932 2.37952,-0.714766 0.60753,-0.237114 1.75837,-0.856346 1.75837,-0.856346 l 4.70649,5.944202 -2.66269,-7.131664 c 0,0 1.23657,-0.983322 1.76066,-1.568834 0.49279,-0.550506 1.28338,-1.808612 1.28338,-1.8086 l 4.8024,2.710614 -3.85242,-4.041958 c 0,0 0.59708,-1.792676 0.71477,-2.614718 0.16867,-1.178414 0.048,-3.375142 0.048,-3.375142 l -6.04012,-0.04794 c 0,0 0.1221,2.504754 -1.42724,4.375368 -2.1924,2.647034 -4.13559,2.470848 -4.13559,2.470848 l -1.42724,9.177764 -1.47293,-9.271394 c 0,0 -1.93482,0.05132 -4.04195,-2.662666 -1.71472,-2.208572 -1.42725,-4.137882 -1.42725,-4.137882 z m 1.18973,1.000216 3.42312,0.14159 c 0,0 0.0633,0.64527 0.14387,0.952254 0.0811,0.308518 0.18954,0.902016 0.18954,0.902016 l -2.90016,2.0461 c 0,0 -0.55191,-0.934916 -0.76043,-1.99814 -0.21121,-1.076728 -0.0958,-2.04382 -0.0958,-2.04382 z m 20.39935,0.285448 h 3.3272 c 0,0 0.19786,1.33726 0.0958,1.99586 -0.0698,0.450996 -0.80838,1.95019 -0.80838,1.95019 l -2.66268,-2.473126 z m -15.26353,3.85014 1.12809,1.224012 -1.74694,3.340896 c 0,0 -1.24377,-0.816638 -1.56884,-1.187474 -0.39497,-0.450552 -0.76043,-1.523152 -0.76043,-1.523152 z m 13.78833,0 2.99608,1.854282 c 0,0 -0.49188,1.228618 -0.76043,1.571112 -0.41516,0.529462 -1.52088,1.235424 -1.52088,1.235424 l -1.58254,-3.692568 z m -10.26932,2.710628 1.06872,0.280888 0.11876,3.99857 c 0,0 -1.18415,0.08395 -1.71043,-0.14159 -0.52628,-0.22555 -1.37928,-1.141794 -1.37928,-1.141794 z m 6.75032,0.09588 1.99814,3.281524 c 0,0 -0.87895,0.459121 -1.37931,0.712487 -0.51858,0.262591 -1.71041,0.333397 -1.71041,0.333397 l 0.10737,-4.135589 z m -13.69244,2.18769 -1.4752,0.18954 -2.71062,3.993998 4.13786,-2.852204 z m 20.87433,0.331118 0.33113,1.379294 3.13992,2.235638 -1.85425,-3.233574 z m -15.26354,3.900381 -1.33134,1.235423 -0.47726,5.135806 2.52109,-4.660818 z m 9.31934,0.04794 -0.61886,1.947899 2.61473,4.233791 -0.5709,-4.802408 z" /></g></svg>
