<?xml version="1.0" encoding="UTF-8" standalone="no"?>
<!-- Created with Inkscape (http://www.inkscape.org/) -->

<svg
   width="31.999998"
   height="32"
   viewBox="0 0 31.999999 32"
   version="1.1"
   id="valorIcon"
   xml:space="preserve"
   xmlns:xlink="http://www.w3.org/1999/xlink"
   xmlns="http://www.w3.org/2000/svg"
   xmlns:svg="http://www.w3.org/2000/svg"><defs
     id="defs1"><linearGradient
       id="swatch2"
       gradientTransform="matrix(0.21463748,0,0,0.21463748,521.76247,-128.59581)"><stop
         style="stop-color:#000000;stop-opacity:1;"
         offset="0"
         id="stop2" /></linearGradient><linearGradient
       xlink:href="#swatch2"
       id="linearGradient41"
       x1="-658.7309"
       y1="-30.760933"
       x2="-636.57166"
       y2="-30.760933"
       gradientUnits="userSpaceOnUse"
       gradientTransform="matrix(1.3490292,0,0,1.3490292,226.04919,10.736428)" /></defs><g
     id="layer2-6"
     transform="translate(663.65134,46.760927)"><path
       id="path4"
       style="font-variation-settings:normal;display:inline;opacity:1;vector-effect:none;fill:url(#linearGradient41);fill-opacity:1;stroke:none;stroke-width:53.9611;stroke-linecap:round;stroke-linejoin:round;stroke-miterlimit:4;stroke-dasharray:none;stroke-dashoffset:0;stroke-opacity:1;-inkscape-stroke:none;stop-color:#000000;stop-opacity:1"
       d="m -632.78593,-46.760933 c 0,0 -3.62267,1.192515 -5.50152,1.443893 -1.94699,0.260484 -8.17491,0.185829 -6.38944,0.334613 l 0.83524,2.887773 4.38697,-0.165999 -2.55578,4.110331 c 0,0 -1.71556,-1.758217 -2.27648,-2.832436 -0.66999,-1.283088 -1.22256,-4.168297 -1.22256,-4.168297 h -3.72301 c 0,0 -0.55367,2.641021 -1.11189,3.778334 -0.58261,1.187023 -2.38715,3.167061 -2.38715,3.167061 l -2.55578,-3.722996 h 4.33428 l 0.77727,-3.167063 c 0,0 -4.74035,0.07002 -6.7794,-0.221321 -1.84137,-0.263074 -5.44353,-1.222558 -5.44353,-1.222558 0,0 3.23311,3.755522 4.61094,5.612164 1.1743,1.582384 3.44371,5.554209 3.44371,5.554209 l -3.22238,3.111725 c 0,0 -1.15145,-2.520228 -1.38856,-4.220977 -0.21765,-1.561272 -0.22133,-5.000906 -0.22133,-5.000906 l -3.38838,-4.278944 c 0,0 -0.64328,6.865102 3.72037,17.613788 3.39607,8.365303 9.61183,12.054313 9.61183,12.054313 v -3.778329 c 0,0 -2.70277,-2.003766 -3.77833,-3.277723 -1.42604,-1.689092 -3.4437,-5.66487 -3.4437,-5.66487 l 3.2777,-3.277722 c 0,0 2.49044,5.406032 3.44372,8.220646 1.00724,2.973921 2.38978,9.111218 2.38978,9.111218 0,0 1.36561,-6.215864 2.38979,-9.221879 0.97403,-2.858835 3.55437,-8.333938 3.55437,-8.333938 l 2.89041,3.556999 c 0,0 -1.73118,3.635174 -2.94574,5.222227 -1.04259,1.362357 -3.66503,3.609705 -3.66503,3.609705 -0.45683,3.822356 -0.0944,0.06664 -0.38996,3.946963 0,0 7.22656,-5.4594 9.94382,-12.222948 3.78453,-9.420067 2.72441,-17.1685 2.72441,-17.1685 l -2.8904,4.610941 c 0,0 -0.11898,2.936756 -0.27665,4.223622 -0.17817,1.453565 -1.00124,4.276314 -1.00124,4.276314 l -3.16706,-2.555776 3.27772,-5.554209 z m -14.50207,5.554345 3.11104,6.278192 c 0,0 -0.5167,1.304147 -1.74965,4.472518 -0.70329,1.807334 -1.5274,5.917045 -1.5274,5.917045 0,0 -0.66068,-3.936521 -1.30538,-5.916249 -0.64402,-1.977623 -1.97211,-4.471722 -1.97211,-4.471722 z" /></g></svg>
