<?xml version="1.0" encoding="UTF-8" standalone="no"?>
<!-- Created with Inkscape (http://www.inkscape.org/) -->

<svg
   width="22.159248"
   height="23.720703"
   viewBox="0 0 22.159248 23.720703"
   version="1.1"
   id="valorIcon"
   xml:space="preserve"
   xmlns:inkscape="http://www.inkscape.org/namespaces/inkscape"
   xmlns:sodipodi="http://sodipodi.sourceforge.net/DTD/sodipodi-0.dtd"
   xmlns="http://www.w3.org/2000/svg"
   xmlns:svg="http://www.w3.org/2000/svg"><sodipodi:namedview
     id="namedview1"
     pagecolor="#ffffff"
     bordercolor="#111111"
     borderopacity="1"
     inkscape:showpageshadow="0"
     inkscape:pageopacity="0"
     inkscape:pagecheckerboard="1"
     inkscape:deskcolor="#d1d1d1"
     inkscape:document-units="px" /><defs
     id="defs1" /><g
     inkscape:groupmode="layer"
     id="layer2"
     inkscape:label="Layer 2"
     transform="translate(-5.0006666,-4.6542969)"><path
       id="path4"
       style="display:inline;fill:#ffffff;fill-opacity:1;stroke:none;stroke-width:40;stroke-linecap:round;stroke-linejoin:round"
       d="m 27.099609,4.6542969 c 0,0 -2.685374,0.8839806 -4.078125,1.0703125 -1.443253,0.193089 -6.059855,0.1377529 -4.736328,0.2480468 l 0.619141,2.140625 3.251953,-0.1230468 -1.894531,3.0468746 c 0,0 -1.271697,-1.3033149 -1.6875,-2.099609 -0.49665,-0.9511199 -0.90625,-3.0898438 -0.90625,-3.0898438 h -2.759766 c 0,0 -0.410425,1.9577165 -0.824219,2.8007813 -0.431877,0.8799094 -1.769531,2.3476565 -1.769531,2.3476565 L 10.419922,8.2363281 h 3.21289 l 0.576172,-2.3476562 c 0,0 -3.513902,0.051875 -5.0253902,-0.1640625 -1.3649679,-0.1950054 -4.0351563,-0.90625 -4.0351563,-0.90625 0,0 2.3966216,2.7838728 3.4179687,4.1601562 0.8704717,1.1729764 2.5527348,4.1171874 2.5527348,4.1171874 l -2.3886722,2.306641 c 0,0 -0.8535367,-1.868181 -1.0292969,-3.128906 C 7.5398259,11.116109 7.5371094,8.5664062 7.5371094,8.5664062 L 5.0253906,5.3945312 c 0,0 -0.476849,5.0889238 2.7578125,13.0566408 2.5174179,6.200981 7.1249999,8.935547 7.1249999,8.935547 v -2.800781 c 0,0 -2.003499,-1.48534 -2.800781,-2.429688 -1.057091,-1.252082 -2.5527345,-4.199219 -2.5527345,-4.199219 l 2.4296875,-2.429687 c 0,0 1.846087,4.00735 2.552734,6.09375 0.746643,2.204484 1.771485,6.753906 1.771485,6.753906 0,0 1.012291,-4.607658 1.771484,-6.835938 0.722021,-2.119177 2.634766,-6.177734 2.634766,-6.177734 l 2.142578,2.636719 c 0,0 -1.283274,2.694651 -2.183594,3.871094 -0.772851,1.00988 -2.716797,2.675781 -2.716797,2.675781 -0.338627,2.833413 -0.06999,0.04939 -0.289062,2.925781 0,0 5.356857,-4.04691 7.371093,-9.060547 2.805373,-6.982851 2.019532,-12.7265622 2.019532,-12.7265622 l -2.142578,3.4179687 c 0,0 -0.08816,2.1769405 -0.205078,3.1308595 -0.13207,1.07749 -0.742188,3.169922 -0.742188,3.169922 l -2.347656,-1.894532 2.429687,-4.117187 z m -10.75,4.117288 2.306136,4.6538591 c 0,0 -0.383019,0.966724 -1.29696,3.315362 -0.521337,1.339729 -1.132223,4.386147 -1.132223,4.386147 0,0 -0.489751,-2.91804 -0.967655,-4.385558 -0.477397,-1.46596 -1.461864,-3.314772 -1.461864,-3.314772 z"
       sodipodi:nodetypes="csccccsccsccccscsccsccsccsccscsccsccscccccccccscscc" /></g></svg>
